<svg width="168" height="58" viewBox="0 0 168 58" fill="none" xmlns="http://www.w3.org/2000/svg">
<path fill-rule="evenodd" clip-rule="evenodd" d="M76.6349 0.156779C76.5595 0.232211 76.4977 3.35698 76.4977 7.10104V13.9081H78.4545H80.4112L80.3598 7.01955L80.3084 0.130986L78.5403 0.0752906C77.5676 0.0446096 76.7101 0.0813471 76.6349 0.156779ZM88.3601 0.156779C88.2847 0.232211 88.2229 3.35698 88.2229 7.10104V13.9081H90.1797H92.1364L92.085 7.01955L92.0336 0.130986L90.2655 0.0752906C89.2929 0.0446096 88.4353 0.0813471 88.3601 0.156779ZM70.7654 14.0385C70.6937 14.11 70.6351 17.7155 70.6351 22.0507V29.9326H72.5893H74.5435V21.9203V13.9081H72.7197C71.7164 13.9081 70.837 13.9667 70.7654 14.0385ZM82.4975 14.0316C82.4221 14.107 82.3603 17.7155 82.3603 22.0507V29.9326H84.3167H86.273L86.222 21.9692L86.171 14.0058L84.4029 13.9501C83.4303 13.9194 82.5727 13.9562 82.4975 14.0316ZM94.0855 21.9133V29.9326H96.0419H97.9982L97.9472 21.9692L97.8962 14.0058L95.9909 13.9499L94.0855 13.894V21.9133ZM32.9178 41.4373C32.0199 41.7328 31.264 42.2044 30.6328 42.8625C28.8041 44.769 29.0206 47.8043 31.0989 49.3933C31.5323 49.7245 32.8217 50.3714 33.9643 50.8306C36.3707 51.7977 37.2183 52.5431 37.2183 53.6917C37.2183 55.5453 34.3042 56.2336 30.6131 55.252L29.5775 54.9766L29.636 55.9803L29.6946 56.984L30.8671 57.367C32.656 57.9515 35.7991 57.924 37.1678 57.3119C39.2225 56.393 40.2307 54.5359 39.7765 52.5067C39.3313 50.5171 38.116 49.3503 35.4005 48.3046C33.0404 47.3959 32.4152 47.0189 32.1311 46.333C31.7535 45.4212 32.1973 44.2647 33.1113 43.7787C33.9542 43.3304 35.7776 43.3044 37.7068 43.713C38.459 43.8725 39.1455 44.0028 39.2319 44.0028C39.3184 44.0028 39.3624 43.585 39.3298 43.0746L39.2702 42.1463L38.1954 41.7807C37.0209 41.3811 33.7372 41.1675 32.9178 41.4373ZM46.889 41.6079C44.5149 42.4543 43.1327 43.7452 42.2642 45.9271C41.8872 46.8737 41.8245 47.3953 41.8245 49.5723C41.8245 52.4944 42.1368 53.5891 43.4201 55.1664C44.9848 57.0895 46.5939 57.7641 49.6274 57.7684C51.6633 57.7715 51.8521 57.7367 53.197 57.1102C55.6235 55.9801 56.9172 54.1398 57.3805 51.1587C58.0121 47.0959 56.3139 43.3573 53.1907 41.9355C52.1462 41.4598 51.6799 41.3721 49.9206 41.3197C48.3277 41.2724 47.6496 41.3369 46.889 41.6079ZM119.467 41.7058C117.92 42.2475 116.96 42.9434 116.074 44.1642C115.143 45.4462 114.76 46.7406 114.651 48.9688C114.463 52.8278 115.675 55.4796 118.252 56.8474C121.176 58.3988 125.111 58.1287 127.635 56.2029C129.611 54.6962 130.745 51.1571 130.246 48.0531C129.761 45.0301 128.502 43.1516 126.203 42.0197C125.057 41.4555 124.72 41.3855 122.845 41.3226C121.053 41.2624 120.579 41.3162 119.467 41.7058ZM149.809 41.6281C148.546 42.0797 147.872 42.5569 147.291 43.4115C146.324 44.8318 146.222 46.3971 146.996 47.9251C147.653 49.2229 148.627 49.9186 151.224 50.9469C153.237 51.7434 154.188 52.5087 154.384 53.4891C154.529 54.2129 153.921 55.0648 152.978 55.4585C152.14 55.8089 150.039 55.7966 148.315 55.4316C147.562 55.2721 146.876 55.1418 146.79 55.1418C146.703 55.1418 146.659 55.5596 146.692 56.07L146.751 56.9982L147.826 57.3832C148.655 57.6801 149.418 57.7694 151.162 57.7741C153.297 57.7795 153.487 57.7471 154.574 57.1911C156.132 56.3944 156.858 55.361 156.973 53.7758C157.044 52.7936 156.973 52.4295 156.534 51.5325C155.787 50.0059 154.763 49.2209 152.278 48.2682C149.761 47.3037 149.194 46.8276 149.194 45.6807C149.194 44.1965 150.224 43.4136 152.168 43.4199C153.146 43.4232 155.327 43.806 156.094 44.1089C156.411 44.2346 156.441 44.1445 156.387 43.2045L156.327 42.1606L155.154 41.7953C153.376 41.2411 151.091 41.1696 149.809 41.6281ZM7.25214 41.6089C7.11007 41.8407 0.870117 57.4477 0.870117 57.5712C0.870117 57.6324 1.38466 57.6822 2.01352 57.6822H3.15712L3.92238 55.6792L4.68765 53.6761H7.87241H11.057L11.8414 55.6792L12.6258 57.6822H14.0991C15.4832 57.6822 15.5659 57.6582 15.4684 57.2855C15.4113 57.0672 13.9771 53.4178 12.2813 49.1756L9.19794 41.4623H8.27009C7.75965 41.4623 7.30158 41.5282 7.25214 41.6089ZM16.8946 49.5674V57.7209L20.2656 57.6453C23.2799 57.5779 23.7452 57.5214 24.6639 57.1128C27.0674 56.0436 28.1353 53.3691 27.0339 51.1767C26.6591 50.4304 25.7928 49.4992 25.4569 49.4816C25.3832 49.4777 25.0823 49.3831 24.7882 49.2711L24.2533 49.0679L24.9455 48.5973C26.6271 47.4547 26.7355 44.5226 25.1534 42.9784C24.0258 41.8778 23.0878 41.6218 19.777 41.5106L16.8946 41.4139V49.5674ZM59.4962 49.5637V57.6822H63.8931H68.2901V56.6074V55.5326H65.3613H62.4324L62.3811 48.5463L62.3298 41.5601L60.913 41.5026L59.4962 41.4451V49.5637ZM69.4626 47.1917C69.4626 53.768 69.5531 54.328 70.8544 55.8064C71.2984 56.311 72.1123 56.9601 72.663 57.249C73.5222 57.7 73.8994 57.7743 75.3252 57.7733C77.434 57.7717 78.6767 57.2623 79.9053 55.8957C81.3197 54.3225 81.3832 53.9528 81.3832 47.28V41.4418L80.3573 41.501L79.3313 41.5601L79.2336 47.2272C79.1396 52.6767 79.1183 52.9302 78.6774 53.8254C77.7355 55.7384 75.1495 56.4196 73.6911 55.1392C72.3966 54.0027 72.3167 53.5647 72.238 47.1784L72.1676 41.4623H70.8151H69.4626V47.1917ZM82.7898 42.4883C82.8325 43.2287 82.9304 43.5215 83.142 43.5406C83.3032 43.5551 84.1156 43.577 84.9471 43.5895L86.4593 43.612L86.5105 50.5982L86.5619 57.5845L87.9786 57.642L89.3954 57.6994V50.6557C89.3954 45.1597 89.4492 43.6084 89.6397 43.5957C89.7742 43.5868 90.5875 43.5647 91.4474 43.5469L93.0107 43.5143L93.0697 42.4883L93.1289 41.4623H87.9298H82.7306L82.7898 42.4883ZM101.121 49.5723V57.6822H102.489H103.857L103.859 54.5066C103.861 52.7602 103.915 51.1331 103.98 50.8914C104.095 50.4612 104.159 50.4517 106.908 50.4517H109.719V54.0669V57.6822H111.087H112.455V49.5723V41.4623H111.087H109.719V44.8822V48.3021H106.914H104.109L103.983 46.8069C103.913 45.9846 103.857 44.4456 103.857 43.387V41.4623H102.489H101.121V49.5723ZM132.426 47.5692L132.486 53.6761L133.006 54.6532C134.152 56.8077 135.84 57.7766 138.446 57.7752C139.869 57.7747 140.25 57.6992 141.108 57.249C141.659 56.9601 142.466 56.3188 142.901 55.8242C144.242 54.3007 144.309 53.8985 144.309 47.2902V41.4623H143.244H142.18L142.121 47.2761C142.061 53.0617 142.059 53.094 141.575 53.9395C140.527 55.7695 138.024 56.3752 136.616 55.1392C135.322 54.0027 135.242 53.5647 135.163 47.1784L135.093 41.4623H133.73H132.367L132.426 47.5692ZM158.965 49.5723V57.6896L163.313 57.6371L167.661 57.5845V56.6074V55.6303L164.681 55.5764L161.701 55.5224V52.9871V50.4517H164.73H167.759V49.4746V48.4975H164.724H161.689L161.744 46.0504L161.799 43.6032L164.73 43.5588L167.661 43.5143V42.5372V41.5601L163.313 41.5075L158.965 41.4549V49.5723ZM19.6734 45.9082L19.7282 48.3998L20.3943 48.4633C21.3705 48.5565 22.611 48.016 23.0233 47.3179C23.5318 46.4571 23.5353 45.1355 23.031 44.4562C22.4613 43.689 21.8502 43.4228 20.6505 43.4195L19.6187 43.4165L19.6734 45.9082ZM47.7 43.7028C45.8191 44.3733 44.652 46.5482 44.6466 49.3931C44.6391 53.1983 46.215 55.4108 49.1203 55.6743C52.4696 55.978 54.4455 53.7613 54.4723 49.67C54.4864 47.5309 54.27 46.6164 53.4411 45.309C52.3893 43.6505 49.8442 42.9386 47.7 43.7028ZM120.136 43.9119C118.288 44.8329 117.437 46.8685 117.574 50.0388C117.661 52.0399 118.103 53.407 118.962 54.3278C120.652 56.1394 124.205 56.1458 125.836 54.3401C126.875 53.1901 127.154 52.3795 127.264 50.189C127.436 46.784 126.626 44.7868 124.716 43.8971C123.278 43.2276 121.498 43.2332 120.136 43.9119ZM6.67644 48.397C6.06243 50.0616 5.5602 51.5126 5.5602 51.6215C5.5602 51.7444 6.45112 51.8196 7.90524 51.8196C9.19501 51.8196 10.2503 51.77 10.2503 51.7092C10.2503 51.4135 8.02699 45.3707 7.91814 45.3707C7.84916 45.3707 7.29045 46.7326 6.67644 48.397ZM19.777 50.3647C19.6963 50.4483 19.6304 51.6893 19.6304 53.1225V55.728H20.9945C23.5009 55.728 24.5587 54.9495 24.5855 53.0848C24.6025 51.9204 24.2199 51.198 23.3473 50.7469C22.7052 50.4147 20.0072 50.1259 19.777 50.3647Z" fill="#2C2C2C"/>
</svg>
