<svg width="104" height="118" viewBox="0 0 104 118" fill="none" xmlns="http://www.w3.org/2000/svg">
<path d="M29.8804 28.4792H4.35547V86.1673H32.3859V54.2265M42.3925 86.8907V18.0125M52.5827 86.8907V0.518555M62.3894 86.8907V26.4192M72.9084 46.67V86.1673H99.644V28.4792H74.8854" stroke="#232323" stroke-width="1.5"/>
<path d="M1.2 112.481L3.91 98.4814H5.2L8.98 108.421L12.75 98.4814H14.04L16.76 112.481H15.05L13.08 102.321L9.53 111.721H8.42L4.87 102.321L2.91 112.481H1.2ZM25.4828 112.741C24.5361 112.741 23.6461 112.555 22.8128 112.181C21.9795 111.801 21.2461 111.278 20.6128 110.611C19.9795 109.945 19.4828 109.175 19.1228 108.301C18.7628 107.421 18.5828 106.481 18.5828 105.481C18.5828 104.481 18.7628 103.545 19.1228 102.671C19.4828 101.791 19.9795 101.018 20.6128 100.351C21.2461 99.6848 21.9795 99.1648 22.8128 98.7914C23.6461 98.4114 24.5361 98.2214 25.4828 98.2214C26.4361 98.2214 27.3295 98.4114 28.1628 98.7914C28.9961 99.1648 29.7295 99.6848 30.3628 100.351C30.9961 101.018 31.4895 101.791 31.8428 102.671C32.2028 103.545 32.3828 104.481 32.3828 105.481C32.3828 106.481 32.2028 107.421 31.8428 108.301C31.4895 109.175 30.9961 109.945 30.3628 110.611C29.7295 111.278 28.9961 111.801 28.1628 112.181C27.3295 112.555 26.4361 112.741 25.4828 112.741ZM25.4828 111.061C26.2095 111.061 26.8861 110.915 27.5128 110.621C28.1461 110.328 28.6995 109.925 29.1728 109.411C29.6528 108.891 30.0261 108.298 30.2928 107.631C30.5661 106.958 30.7028 106.241 30.7028 105.481C30.7028 104.721 30.5661 104.005 30.2928 103.331C30.0195 102.651 29.6428 102.058 29.1628 101.551C28.6895 101.038 28.1361 100.635 27.5028 100.341C26.8761 100.048 26.2028 99.9014 25.4828 99.9014C24.7561 99.9014 24.0761 100.048 23.4428 100.341C22.8161 100.635 22.2628 101.041 21.7828 101.561C21.3095 102.075 20.9361 102.668 20.6628 103.341C20.3961 104.008 20.2628 104.721 20.2628 105.481C20.2628 106.248 20.3995 106.968 20.6728 107.641C20.9461 108.315 21.3195 108.908 21.7928 109.421C22.2728 109.935 22.8261 110.338 23.4528 110.631C24.0861 110.918 24.7628 111.061 25.4828 111.061ZM34.7539 112.481V98.4814H36.5739L43.5639 109.441V98.4814H45.2439V112.481H43.4339L36.4339 101.521V112.481H34.7539ZM54.5445 112.741C53.5979 112.741 52.7079 112.555 51.8745 112.181C51.0412 111.801 50.3079 111.278 49.6745 110.611C49.0412 109.945 48.5445 109.175 48.1845 108.301C47.8245 107.421 47.6445 106.481 47.6445 105.481C47.6445 104.481 47.8245 103.545 48.1845 102.671C48.5445 101.791 49.0412 101.018 49.6745 100.351C50.3079 99.6848 51.0412 99.1648 51.8745 98.7914C52.7079 98.4114 53.5979 98.2214 54.5445 98.2214C55.4979 98.2214 56.3912 98.4114 57.2245 98.7914C58.0579 99.1648 58.7912 99.6848 59.4245 100.351C60.0579 101.018 60.5512 101.791 60.9045 102.671C61.2645 103.545 61.4445 104.481 61.4445 105.481C61.4445 106.481 61.2645 107.421 60.9045 108.301C60.5512 109.175 60.0579 109.945 59.4245 110.611C58.7912 111.278 58.0579 111.801 57.2245 112.181C56.3912 112.555 55.4979 112.741 54.5445 112.741ZM54.5445 111.061C55.2712 111.061 55.9479 110.915 56.5745 110.621C57.2079 110.328 57.7612 109.925 58.2345 109.411C58.7145 108.891 59.0879 108.298 59.3545 107.631C59.6279 106.958 59.7645 106.241 59.7645 105.481C59.7645 104.721 59.6279 104.005 59.3545 103.331C59.0812 102.651 58.7045 102.058 58.2245 101.551C57.7512 101.038 57.1979 100.635 56.5645 100.341C55.9379 100.048 55.2645 99.9014 54.5445 99.9014C53.8179 99.9014 53.1379 100.048 52.5045 100.341C51.8779 100.635 51.3245 101.041 50.8445 101.561C50.3712 102.075 49.9979 102.668 49.7245 103.341C49.4579 104.008 49.3245 104.721 49.3245 105.481C49.3245 106.248 49.4612 106.968 49.7345 107.641C50.0079 108.315 50.3812 108.908 50.8545 109.421C51.3345 109.935 51.8879 110.338 52.5145 110.631C53.1479 110.918 53.8245 111.061 54.5445 111.061ZM63.8156 112.481V98.4814H65.4956V110.801H71.7656V112.481H63.8156ZM74.6719 112.481V98.4814H76.3519V112.481H74.6719ZM90.0494 98.4814V100.161H85.3894V112.481H83.7094V100.161H79.0594V98.4814H90.0494ZM101.067 98.4814H102.747V112.481H101.067V105.821H94.137V112.481H92.457V98.4814H94.137V104.141H101.067V98.4814Z" fill="#232323"/>
</svg>
