<svg width="127" height="31" viewBox="0 0 127 31" fill="none" xmlns="http://www.w3.org/2000/svg">
<path fill-rule="evenodd" clip-rule="evenodd" d="M5.13213 0.294029C1.60443 0.370793 1.27305 0.425799 1.02761 0.975541C0.847684 1.37901 0.784433 6.11059 0.833321 15.4991C0.903124 28.8809 0.925045 29.4409 1.39502 29.8529C1.79972 30.2077 3.78975 30.2817 12.9231 30.2817H23.9621L25.4174 29.4848C26.5027 28.8903 27.079 28.3281 27.6861 27.2725C28.4922 25.8699 28.4995 25.8248 28.4947 22.2517C28.4897 18.4026 28.5038 18.4564 26.6814 15.4082C26.4226 14.9754 26.4778 14.752 27.0168 14.0482C28.0603 12.686 28.437 11.2946 28.4728 8.67283C28.5179 5.35685 27.7171 2.32587 26.6199 1.66037C26.1983 1.40469 25.6779 1.01181 25.4635 0.786957C25.157 0.465997 23.3475 0.360522 17.0216 0.294637C12.593 0.248398 7.24285 0.248091 5.13213 0.294029ZM46.2983 0.287683L36.2512 0.36868L35.5348 1.09189C35.1406 1.48961 34.7289 1.86195 34.6198 1.91938C34.5107 1.9768 34.1095 2.47637 33.7285 3.02944C33.0488 4.01529 33.0355 4.11291 33.0355 8.07383C33.0355 10.6605 33.1342 12.1859 33.3099 12.3161C33.8096 12.6866 39.3256 12.5833 39.6474 12.1973C39.8114 12.0006 39.9503 10.9909 39.9555 9.95396L39.9654 8.06839H47.2733H54.5812L54.7072 10.3351L54.8332 12.6017L58.1091 12.4962C59.9109 12.4382 61.473 12.2922 61.5804 12.1714C61.6877 12.0508 61.8011 10.5962 61.8324 8.93939C61.8782 6.49925 61.8054 5.77362 61.4481 5.11931C61.2057 4.67534 61.0071 4.0168 61.0071 3.65594C61.0071 2.48786 58.7792 0.522203 57.2271 0.320923C56.7421 0.258061 51.8241 0.242954 46.2983 0.287683ZM77.022 0.289491C69.1516 0.349935 66.6561 0.457526 66.5049 0.742824C66.1597 1.39502 66.2527 29.5008 66.6014 29.919C66.8023 30.1599 67.8967 30.2817 69.8595 30.2817C72.2104 30.2817 72.896 30.1844 73.211 29.8069C73.5364 29.4164 73.6069 28.508 73.6069 24.7015C73.6069 19.5166 73.5356 19.7039 75.509 19.7039C76.6432 19.7039 77.4799 20.3942 80.0601 23.4581C81.4828 25.1479 84.9957 28.9166 85.416 29.2043C85.643 29.3599 85.9787 29.6658 86.1617 29.8843C86.4058 30.1756 87.4597 30.2817 90.1102 30.2817C92.0984 30.2817 93.9047 30.1992 94.124 30.0983C94.3772 29.9816 94.5156 29.5685 94.503 28.9649C94.4866 28.1746 94.1862 27.7104 92.7143 26.2017C91.7414 25.2044 90.6868 24.2188 90.3705 24.0115C90.0545 23.8045 89.3 23.0758 88.6942 22.3928C88.0884 21.7095 87.3942 20.9373 87.1517 20.6765C86.43 19.901 86.6329 19.7042 88.1597 19.6994C88.9568 19.697 89.8922 19.4987 90.2387 19.2591C90.5852 19.0194 91.1285 18.6827 91.4463 18.5108C91.7701 18.3355 92.2947 17.5001 92.6407 16.6089C93.216 15.1268 93.2581 14.6834 93.2624 10.0328C93.2664 5.55541 93.2118 4.90624 92.7267 3.67438C92.0125 1.86196 90.3279 0.498027 88.598 0.331502C87.9065 0.265013 82.6972 0.246273 77.022 0.289491ZM98.9326 0.360214L97.9246 0.512837V15.3217V30.1306H101.273C103.973 30.1306 104.669 30.0427 104.867 29.6773C105.01 29.4116 105.078 27.0038 105.03 23.8595C104.974 20.2047 105.033 18.4944 105.216 18.4929C105.364 18.4917 105.881 18.9692 106.366 19.554C107.268 20.6405 109.191 22.6509 111.135 24.5395C111.734 25.1213 112.409 25.8466 112.634 26.1515C112.86 26.4565 113.873 27.5103 114.886 28.4938L116.728 30.2817H121.344C126.561 30.2817 126.879 30.1635 126.158 28.4901C125.937 27.9794 125.648 27.5617 125.514 27.5617C125.381 27.5617 124.653 26.8896 123.896 26.0681C123.14 25.2467 122.207 24.3288 121.823 24.0281C121.438 23.7277 120.667 22.9652 120.108 22.3339C119.549 21.7025 117.647 19.8012 115.879 18.1091C112.696 15.0606 112.153 14.1981 113.17 13.8106C113.448 13.7051 113.674 13.5048 113.674 13.3651C113.674 13.1312 114.691 12.159 117.305 9.89441C119.357 8.11553 122.138 5.4989 123.166 4.37977C123.743 3.75085 124.479 3.16182 124.802 3.07055C125.441 2.88952 125.942 1.63741 125.69 0.850421C125.555 0.426705 124.962 0.361726 121.235 0.361726H116.935L115.62 1.54281C114.896 2.19228 113.851 3.20865 113.296 3.80161C112.065 5.1184 109.356 7.61445 109.157 7.61626C109.078 7.61717 108.279 8.4374 107.383 9.43927C106.487 10.4414 105.598 11.2227 105.406 11.1758C105.127 11.1075 105.06 10.1229 105.065 6.20852C105.069 2.9152 104.974 1.17168 104.774 0.851324C104.55 0.493796 103.916 0.355383 102.209 0.291917C100.961 0.245677 99.487 0.276196 98.9326 0.360214ZM8.19414 7.11457C8.12257 7.33792 8.09788 8.52776 8.13895 9.75902L8.2138 11.9973L14.489 11.9362C17.9404 11.9027 20.866 11.7531 20.9908 11.6035C21.1155 11.4539 21.24 10.578 21.2675 9.65717C21.3058 8.37635 21.2047 7.83296 20.8376 7.34547C20.3749 6.73136 20.1408 6.70839 14.3408 6.70839C9.53627 6.70839 8.29771 6.79029 8.19414 7.11457ZM73.8791 7.73686C73.6931 8.00553 73.6127 9.08143 73.6593 10.6747L73.7329 13.1889L79.5891 13.2173C82.8098 13.2331 85.5823 13.1442 85.7499 13.02C86.1538 12.7208 86.3219 9.19779 85.9827 8.14394L85.7154 7.31283H79.9439C75.2986 7.31283 74.1154 7.39565 73.8791 7.73686ZM33.2035 18.0922C33.1111 18.2028 33.0355 20.1002 33.0355 22.3082C33.0355 26.2891 33.042 26.3341 33.8094 27.6977C34.235 28.4539 34.7279 29.0728 34.9048 29.0728C35.0817 29.0728 35.4879 29.3448 35.8074 29.6773C36.3689 30.2612 36.7501 30.2817 47.0729 30.2817C57.5444 30.2817 57.7783 30.2687 58.8152 29.6256C59.3971 29.265 60.0432 28.8767 60.2511 28.7633C60.459 28.6497 60.7264 28.1628 60.8451 27.6814C60.9637 27.1999 61.2407 26.3555 61.4604 25.8046C61.9619 24.5473 61.9926 19.0397 61.5023 18.3309C61.2437 17.9577 60.6001 17.8888 58.0093 17.9574L54.8332 18.0417L54.7072 20.3084L54.5812 22.575L47.7773 22.66C44.0351 22.7065 40.711 22.6678 40.3905 22.5738C39.8454 22.414 39.8122 22.2749 39.8812 20.4341C39.9366 18.9529 39.8626 18.3953 39.5821 18.1826C39.1602 17.8625 33.4621 17.7818 33.2035 18.0922ZM8.18431 18.6289C8.11703 18.8396 8.09612 19.8816 8.13795 20.9446L8.2138 22.8773L14.5576 22.9758C20.5473 23.0689 20.9154 23.0429 21.1541 22.5083C21.4441 21.8582 21.4099 19.1385 21.1042 18.5603C20.8088 18.0012 8.36424 18.0674 8.18431 18.6289Z" fill="#2C2C2C"/>
</svg>
