<svg width="55" height="63" viewBox="0 0 55 63" fill="none" xmlns="http://www.w3.org/2000/svg">
<path id="Vector" d="M50.6208 14.2338L46.2568 18.4277M46.2568 18.4277C41.3816 13.7425 34.7693 11.1104 27.8747 11.1104C20.98 11.1104 14.3678 13.7425 9.49255 18.4277C4.6173 23.1129 1.87842 29.4673 1.87842 36.0932C1.87842 42.7191 4.6173 49.0736 9.49255 53.7587C14.3678 58.4439 20.98 61.0761 27.8747 61.0761C34.7693 61.0761 41.3816 58.4439 46.2568 53.7587C51.1321 49.0736 53.8709 42.7191 53.8709 36.0932C53.8709 29.4673 51.1321 23.1129 46.2568 18.4277ZM27.8747 23.6021V36.0932M18.1263 1.74268H37.623" stroke="black" stroke-width="2" stroke-linecap="round" stroke-linejoin="round"/>
</svg>
