<svg width="70" height="36" viewBox="0 0 70 36" fill="none" xmlns="http://www.w3.org/2000/svg">
<path id="Vector" d="M29.7834 28.9594C28.7734 28.9594 27.9537 28.1156 27.9537 27.076V17.6478C27.9537 16.6082 28.7734 15.7643 29.7834 15.7643C30.7933 15.7643 31.6131 16.6082 31.6131 17.6478V27.076C31.6131 28.1156 30.7933 28.9594 29.7834 28.9594ZM29.7834 9.28123C24.9024 9.28123 20.9322 13.368 20.9322 18.3951V26.3783C20.9322 31.4054 24.9024 35.4922 29.7834 35.4922C34.6644 35.4922 38.6372 31.4054 38.6372 26.3783V18.3951C38.6372 13.368 34.667 9.28123 29.7834 9.28123ZM49.2966 8.07065H51.1826C53.1221 8.07065 54.692 6.7994 54.692 4.8029C54.692 2.80916 53.1221 1.5379 51.1826 1.5379H49.2618C44.3835 1.5379 40.4106 5.50608 40.4106 10.5277V31.877C40.4106 33.8735 41.9832 35.4922 43.92 35.4922C45.8596 35.4922 47.4294 33.8735 47.4294 31.877V17.7884H49.8538C51.7934 17.7884 53.3632 16.542 53.3632 14.5482C53.3632 12.549 51.7907 11.275 49.8538 11.275H47.4294V10.1664C47.4321 8.96135 48.1259 8.07065 49.2966 8.07065ZM58.4425 27.6082C56.302 27.6082 54.5661 29.3924 54.5661 31.5985C54.5661 33.799 56.302 35.5859 58.4425 35.5859C60.5829 35.5859 62.3162 33.799 62.3162 31.5985C62.3189 29.3924 60.5856 27.6082 58.4425 27.6082ZM63.8164 8.07065H65.7023C67.6419 8.07065 69.2117 6.7994 69.2117 4.8029C69.2117 2.80916 67.6392 1.5379 65.7023 1.5379H63.7842C58.9059 1.5379 54.9331 5.50609 54.9331 10.5304V22.7879C54.9331 24.7844 56.5056 26.4031 58.4451 26.4031C60.382 26.4031 61.9545 24.7844 61.9545 22.7879V17.7884H64.3763C66.3158 17.7884 67.8883 16.542 67.8883 14.5482C67.8883 12.549 66.3158 11.275 64.3763 11.275H61.9545V10.1664C61.9545 8.96135 62.6457 8.07065 63.8164 8.07065ZM15.7351 0.330078C13.7956 0.330078 12.223 1.94603 12.223 3.94253V11.2612H7.45188V3.94529C7.45188 1.95154 5.87935 0.330078 3.94249 0.330078C2.00295 0.330078 0.433105 1.94879 0.433105 3.94529V31.8852C0.433105 33.879 2.00563 35.4977 3.94249 35.4977C5.88203 35.4977 7.45188 33.879 7.45188 31.8852V17.7912H10.4442C11.4247 17.7912 12.223 18.6102 12.223 19.6222V31.8825C12.2257 33.879 13.7956 35.4977 15.7351 35.4977C17.672 35.4977 19.2445 33.879 19.2445 31.8825V3.93977C19.2445 1.94603 17.672 0.330078 15.7351 0.330078Z" fill="#2C2C2C"/>
</svg>
