<svg width="63" height="63" viewBox="0 0 63 63" fill="none" xmlns="http://www.w3.org/2000/svg">
<g id="Group">
<path id="Vector" d="M29.0572 5.43083L29.0567 5.43128L3.69511 32.5772C3.46625 32.8114 3.17552 32.9281 2.88825 32.9255C2.59878 32.923 2.30705 32.7993 2.0804 32.5569C1.8517 32.3124 1.71125 31.968 1.70806 31.595C1.7049 31.2248 1.83741 30.8795 2.05955 30.6301L27.4208 3.48455L26.6901 2.80186L27.4209 3.48454C27.9413 2.92745 28.5555 2.48946 29.2264 2.19202C29.897 1.89467 30.6132 1.74268 31.3346 1.74268C32.0561 1.74268 32.7723 1.89467 33.4429 2.19202C34.1138 2.48946 34.728 2.92745 35.2484 3.48454L60.6137 30.6375L60.6258 30.6504L60.6383 30.6629C60.7582 30.7825 60.858 30.9304 60.9286 31.0999C60.9991 31.2694 61.038 31.4548 61.0411 31.6445C61.0442 31.8342 61.0115 32.0213 60.9464 32.194C60.8812 32.3666 60.7859 32.519 60.6693 32.6438C60.5529 32.7684 60.4181 32.8625 60.275 32.9244L60.6719 33.8423L60.275 32.9244C60.1322 32.9861 59.9818 33.0155 59.8321 33.0126C59.6825 33.0098 59.5327 32.9748 59.3913 32.9073C59.2496 32.8398 59.1172 32.74 59.0043 32.6103L58.9928 32.5971L58.9808 32.5843L33.6126 5.43128L33.6121 5.43083C33.0202 4.79799 32.2026 4.42861 31.3346 4.42861C30.4667 4.42861 29.6491 4.79799 29.0572 5.43083Z" stroke="black" stroke-width="2"/>
<path id="Vector_2" d="M8.25098 37.2609L31.3319 12.5501L54.4185 37.2609V56.2172C54.4185 58.9641 52.3511 61.0759 49.9449 61.0759H40.0925C39.7998 61.0759 39.5042 60.9521 39.275 60.7068C39.0437 60.4593 38.903 60.1099 38.903 59.7324V45.6716C38.903 44.806 38.5824 43.9633 37.9925 43.3319C37.4004 42.6981 36.5823 42.3282 35.7136 42.3282H26.9559C26.0872 42.3282 25.2691 42.6981 24.677 43.3319C24.0871 43.9633 23.7664 44.806 23.7664 45.6716V59.7324C23.7664 60.1099 23.6257 60.4593 23.3945 60.7068C23.1653 60.9521 22.8697 61.0759 22.577 61.0759H12.7246C11.5609 61.0759 10.4299 60.5817 9.58486 59.6773C8.73769 58.7705 8.25098 57.5269 8.25098 56.2172V37.2609Z" stroke="black" stroke-width="2"/>
</g>
</svg>
