<svg width="53" height="58" viewBox="0 0 53 58" fill="none" xmlns="http://www.w3.org/2000/svg">
<path d="M17.1087 12.9409H5.77246V38.5616H18.2214V24.3759M22.6656 38.8828V8.29241M27.1913 38.8828V0.522949M31.5467 38.8828V12.026M36.2184 21.0199V38.5616H48.0923V12.9409H37.0964" stroke="#232323"/>
<path d="M1.03262 55.155L2.38762 48.155H3.03262L4.92262 53.125L6.80762 48.155H7.45262L8.81262 55.155H7.95762L6.97262 50.075L5.19762 54.775H4.64262L2.86762 50.075L1.88762 55.155H1.03262ZM13.174 55.285C12.7007 55.285 12.2557 55.1917 11.839 55.005C11.4224 54.815 11.0557 54.5534 10.739 54.22C10.4224 53.8867 10.174 53.5017 9.99402 53.065C9.81402 52.625 9.72402 52.155 9.72402 51.655C9.72402 51.155 9.81402 50.6867 9.99402 50.25C10.174 49.81 10.4224 49.4234 10.739 49.09C11.0557 48.7567 11.4224 48.4967 11.839 48.31C12.2557 48.12 12.7007 48.025 13.174 48.025C13.6507 48.025 14.0974 48.12 14.514 48.31C14.9307 48.4967 15.2974 48.7567 15.614 49.09C15.9307 49.4234 16.1774 49.81 16.354 50.25C16.534 50.6867 16.624 51.155 16.624 51.655C16.624 52.155 16.534 52.625 16.354 53.065C16.1774 53.5017 15.9307 53.8867 15.614 54.22C15.2974 54.5534 14.9307 54.815 14.514 55.005C14.0974 55.1917 13.6507 55.285 13.174 55.285ZM13.174 54.445C13.5374 54.445 13.8757 54.3717 14.189 54.225C14.5057 54.0784 14.7824 53.8767 15.019 53.62C15.259 53.36 15.4457 53.0634 15.579 52.73C15.7157 52.3934 15.784 52.035 15.784 51.655C15.784 51.275 15.7157 50.9167 15.579 50.58C15.4424 50.24 15.254 49.9434 15.014 49.69C14.7774 49.4334 14.5007 49.2317 14.184 49.085C13.8707 48.9384 13.534 48.865 13.174 48.865C12.8107 48.865 12.4707 48.9384 12.154 49.085C11.8407 49.2317 11.564 49.435 11.324 49.695C11.0874 49.9517 10.9007 50.2484 10.764 50.585C10.6307 50.9184 10.564 51.275 10.564 51.655C10.564 52.0384 10.6324 52.3984 10.769 52.735C10.9057 53.0717 11.0924 53.3684 11.329 53.625C11.569 53.8817 11.8457 54.0834 12.159 54.23C12.4757 54.3734 12.814 54.445 13.174 54.445ZM17.8096 55.155V48.155H18.7196L22.2146 53.635V48.155H23.0546V55.155H22.1496L18.6496 49.675V55.155H17.8096ZM27.7049 55.285C27.2315 55.285 26.7865 55.1917 26.3699 55.005C25.9532 54.815 25.5865 54.5534 25.2699 54.22C24.9532 53.8867 24.7049 53.5017 24.5249 53.065C24.3449 52.625 24.2549 52.155 24.2549 51.655C24.2549 51.155 24.3449 50.6867 24.5249 50.25C24.7049 49.81 24.9532 49.4234 25.2699 49.09C25.5865 48.7567 25.9532 48.4967 26.3699 48.31C26.7865 48.12 27.2315 48.025 27.7049 48.025C28.1816 48.025 28.6282 48.12 29.0449 48.31C29.4616 48.4967 29.8282 48.7567 30.1449 49.09C30.4616 49.4234 30.7082 49.81 30.8849 50.25C31.0649 50.6867 31.1549 51.155 31.1549 51.655C31.1549 52.155 31.0649 52.625 30.8849 53.065C30.7082 53.5017 30.4616 53.8867 30.1449 54.22C29.8282 54.5534 29.4616 54.815 29.0449 55.005C28.6282 55.1917 28.1816 55.285 27.7049 55.285ZM27.7049 54.445C28.0682 54.445 28.4066 54.3717 28.7199 54.225C29.0366 54.0784 29.3132 53.8767 29.5499 53.62C29.7899 53.36 29.9766 53.0634 30.1099 52.73C30.2466 52.3934 30.3149 52.035 30.3149 51.655C30.3149 51.275 30.2466 50.9167 30.1099 50.58C29.9732 50.24 29.7849 49.9434 29.5449 49.69C29.3082 49.4334 29.0316 49.2317 28.7149 49.085C28.4016 48.9384 28.0649 48.865 27.7049 48.865C27.3415 48.865 27.0015 48.9384 26.6849 49.085C26.3716 49.2317 26.0949 49.435 25.8549 49.695C25.6182 49.9517 25.4315 50.2484 25.2949 50.585C25.1615 50.9184 25.0949 51.275 25.0949 51.655C25.0949 52.0384 25.1632 52.3984 25.2999 52.735C25.4365 53.0717 25.6232 53.3684 25.8599 53.625C26.0999 53.8817 26.3765 54.0834 26.6899 54.23C27.0066 54.3734 27.3449 54.445 27.7049 54.445ZM32.3404 55.155V48.155H33.1804V54.315H36.3154V55.155H32.3404ZM37.7686 55.155V48.155H38.6086V55.155H37.7686ZM45.4573 48.155V48.995H43.1273V55.155H42.2873V48.995H39.9623V48.155H45.4573ZM50.9661 48.155H51.8061V55.155H50.9661V51.825H47.5011V55.155H46.6611V48.155H47.5011V50.985H50.9661V48.155Z" fill="#232323"/>
</svg>
