<svg width="103" height="102" viewBox="0 0 103 102" fill="none" xmlns="http://www.w3.org/2000/svg">
<g id="mastercard-7 2" clip-path="url(#clip0_276_217)">
<g id="Group">
<path id="Vector" fill-rule="evenodd" clip-rule="evenodd" d="M0.641113 0.830078H102.641V101.83H0.641113V0.830078Z" fill="white"/>
<path id="Vector_2" fill-rule="evenodd" clip-rule="evenodd" d="M98.1411 51.3307C98.1411 36.2768 85.8163 24.0728 70.6139 24.0728C64.0167 24.0728 58.0139 26.3589 53.2731 30.1908C56.8894 33.648 59.6501 37.9766 61.1312 42.8695H58.8441C57.4106 38.5194 54.8928 34.6813 51.62 31.6013C48.3252 34.7082 45.8593 38.5751 44.4429 42.8564H42.1553C43.616 38.0532 46.2931 33.6996 49.9319 30.2096C45.2028 26.4171 39.2285 24.0723 32.6684 24.0723C17.466 24.0723 5.14062 36.2762 5.14062 51.3302C5.14062 66.3835 17.4654 78.5875 32.6684 78.5875C39.2279 78.5875 45.2028 76.2427 49.9319 72.4502C46.3436 69.0034 43.6301 64.6691 42.1553 59.8039H44.4429C45.8595 64.0851 48.3253 67.952 51.62 71.059C54.8934 67.9785 57.4106 64.1409 58.8441 59.7903H61.1312C59.6501 64.6832 56.8894 69.0123 53.2731 72.469C58.0139 76.3003 64.0167 78.587 70.6139 78.587C85.8163 78.5875 98.1411 66.3835 98.1411 51.3307Z" fill="#323232"/>
<path id="Vector_3" fill-rule="evenodd" clip-rule="evenodd" d="M77.9101 57.7155L79.8108 47.63H82.2138L82.4651 48.6239C82.8959 48.1262 83.7208 47.63 85.1194 47.63L84.367 50.2572C83.6849 50.2572 82.3937 50.0806 81.5692 53.0987L80.7083 57.7155H77.9101ZM41.0774 45.0667H43.8471L43.2788 47.739H44.7694L44.2731 49.9187H42.8528L42.0712 53.9968C41.9289 54.7707 42.0003 55.4744 43.5984 55.2282L43.4206 57.267C42.8168 57.6537 42.0003 57.76 41.3605 57.76C40.7218 57.76 38.6263 57.3723 39.1597 54.6303L41.0774 45.0667ZM53.0795 53.224C53.3991 51.6059 54.1452 47.5985 49.2806 47.5985C44.8059 47.5985 44.2381 51.9931 44.1318 52.6256C44.0254 53.2591 43.9545 57.7239 48.7477 57.7239C49.9198 57.7595 51.6242 57.6186 52.2995 57.2665L52.7254 55.1931C52.2995 55.2973 50.7009 55.4388 49.5997 55.4388C48.4995 55.4388 46.7242 55.5096 47.0433 53.224H53.0795ZM38.4506 49.9894L39.0894 47.9496C37.7754 47.4576 36.7462 47.5634 36.3552 47.5634C35.9641 47.5634 32.6393 47.5231 32.1298 49.9543C31.7392 51.8181 32.4282 52.5889 33.0886 52.8724C34.1543 53.3298 34.7581 53.7516 35.3265 54.033C36.0292 54.3809 35.9001 55.5447 34.9709 55.5447C34.5443 55.5447 32.6986 55.7553 31.3138 55.2979L30.9233 57.3723C32.2017 57.7244 33.2304 57.7244 34.1903 57.7244C34.8645 57.7244 38.167 57.9005 38.6279 54.8761C38.8533 53.4016 38.2019 52.7309 37.6691 52.416C37.1367 52.0639 36.2488 51.5719 35.681 51.3251C35.1127 51.0793 34.6867 50.1304 35.7164 49.849C36.3552 49.7783 37.6685 49.7783 38.4506 49.9894ZM20.4833 57.7239L22.791 45.5587H18.2465L14.8726 52.9426L14.3397 45.5587H9.90159L7.52246 57.7239H10.2916L11.996 48.9341L12.7422 57.7239H15.3695L19.2403 49.1453L17.6068 57.7239H20.4833ZM23.5361 47.915L23.1101 50.0948C23.7853 50.0251 25.5961 49.7437 26.5545 49.7783C27.5138 49.8134 28.5785 49.673 28.2589 51.1846C27.5488 51.2554 22.5778 50.4815 21.7973 54.7C21.4776 56.7755 23.2879 57.8297 24.7082 57.76C26.1285 57.6893 26.519 57.5132 27.0164 57.1611L27.3715 57.7239H29.9628L31.064 52.2394C31.3482 50.8682 31.8091 47.5629 27.1582 47.5629C26.3063 47.5985 25.348 47.5629 23.5361 47.915ZM68.4189 48.3714C67.7077 47.9491 67.2119 47.8794 66.288 47.8794C65.3651 47.8794 63.3051 48.7528 62.9156 51.2197C62.4536 54.1378 64.4772 55.5787 67.3183 54.6303L68.1348 57.0914C67.2119 57.5132 66.288 57.7239 64.7613 57.7239C61.8848 57.7239 58.7606 55.1931 60.1809 50.0591C61.2281 46.2765 64.5137 44.8911 66.4309 44.9613C68.7026 45.0452 69.5201 45.8049 70.2303 46.5789L68.4189 48.3714ZM92.0319 48.7932C91.4985 48.407 91.1805 47.5985 89.8655 47.5985C88.3389 47.5985 85.9597 47.3171 84.6109 51.8878C83.7087 54.9426 85.5338 57.7244 87.5213 57.7244C88.4452 57.6898 89.3681 57.3026 89.9354 56.9159L90.292 57.7244H93.2739L95.689 44.9268H92.7765L92.0319 48.7932ZM70.4075 47.915L69.9805 50.0948C70.6562 50.0251 72.466 49.7437 73.4254 49.7783C74.3842 49.8134 75.45 49.673 75.1298 51.1846C74.4197 51.2554 69.4487 50.4815 68.6682 54.7C68.348 56.7755 70.1583 57.8297 71.5786 57.76C72.9999 57.6893 73.3894 57.5132 73.8873 57.1611L74.2429 57.7239H76.8337L77.9355 52.2394C78.2196 50.8682 78.6805 47.5629 74.0286 47.5629C73.1772 47.5985 72.2183 47.5629 70.4075 47.915Z" fill="white"/>
<path id="Vector_4" fill-rule="evenodd" clip-rule="evenodd" d="M47.2202 51.3951H50.6646C50.8424 50.4105 50.5228 49.5664 49.4221 49.5664C48.3209 49.5664 47.5399 50.1292 47.2202 51.3951ZM27.7977 53.2233C27.3358 53.1515 26.306 52.8711 25.4181 53.469C24.5301 54.0669 24.2819 55.1206 25.2053 55.4737C26.0938 55.8117 27.4056 55.228 27.5845 54.3121L27.7977 53.2233ZM91.0373 52.9062C91.3215 51.9924 91.1665 50.8512 90.8595 50.4462C90.0081 49.3212 88.0486 50.2104 87.4512 52.4153C87.0606 53.8562 87.9131 54.9461 88.8715 54.9461C89.9017 54.9456 90.5405 54.1371 91.0373 52.9062ZM74.6686 53.2233C74.2067 53.1515 73.1774 52.8711 72.2895 53.469C71.4016 54.0669 71.1528 55.1206 72.0768 55.4737C72.9658 55.8117 74.2771 55.228 74.4548 54.3121L74.6686 53.2233Z" fill="#323232"/>
<path id="Vector_5" fill-rule="evenodd" clip-rule="evenodd" d="M53.1587 57.7232L55.0409 47.7383H57.4201L57.6682 48.7228C58.0953 48.2303 58.9118 47.7383 60.2956 47.7383L59.5854 50.3755C58.9118 50.3755 57.5968 50.1648 56.7803 53.152L55.9289 57.7237L53.1587 57.7232Z" fill="white"/>
</g>
</g>
<defs>
<clipPath id="clip0_276_217">
<rect width="102" height="101" fill="white" transform="translate(0.641113 0.830078)"/>
</clipPath>
</defs>
</svg>
