<svg width="68" height="65" viewBox="0 0 68 65" fill="none" xmlns="http://www.w3.org/2000/svg">
<path id="Vector" d="M45.8071 42.6316C45.8071 39.4043 36.6538 36.7903 25.3627 36.7903M45.8071 42.6316C45.8071 45.8589 36.6538 48.4729 25.3627 48.4729C14.0715 48.4729 4.9182 45.8589 4.9182 42.6316M45.8071 42.6316V57.0508C45.8071 60.3774 36.6538 63.0761 25.3627 63.0761C14.0715 63.0761 4.9182 60.3803 4.9182 57.0508V42.6316M45.8071 42.6316C56.9756 42.6316 66.2516 39.7489 66.2516 36.7903V7.58395M25.3627 36.7903C14.0715 36.7903 4.9182 39.4043 4.9182 42.6316M25.3627 36.7903C12.4593 36.7903 1.99756 33.9076 1.99756 30.949V16.3459M25.3627 10.5046C12.4593 10.5046 1.99756 13.1186 1.99756 16.3459M1.99756 16.3459C1.99756 19.5732 12.4593 22.1871 25.3627 22.1871C25.3627 25.1457 34.8635 28.0284 46.032 28.0284C57.1976 28.0284 66.2516 25.1457 66.2516 22.1871M66.2516 7.58395C66.2516 4.35665 57.1976 1.74268 46.032 1.74268C34.8635 1.74268 25.8124 4.35665 25.8124 7.58395M66.2516 7.58395C66.2516 10.8113 57.1976 13.4252 46.032 13.4252C34.8664 13.4252 25.8124 10.8113 25.8124 7.58395M25.8124 7.58395V37.2751" stroke="black" stroke-width="2"/>
</svg>
