<svg width="27" height="30" viewBox="0 0 27 30" fill="none" xmlns="http://www.w3.org/2000/svg">
<path d="M4.28037 12.1119H1.88037C1.88037 5.33363 1.88037 1.06641 13.8804 1.06641C25.8804 1.06641 25.8804 5.33363 25.8804 12.1119H23.4804M23.4804 9.65732C23.4804 11.0135 19.182 12.1119 13.8804 12.1119C8.57877 12.1119 4.28037 11.0135 4.28037 9.65732M23.4804 9.65732C23.4804 8.30118 19.182 7.20277 13.8804 7.20277C8.57877 7.20277 4.28037 8.30118 4.28037 9.65732M23.4804 9.65732V24.3846C23.4804 26.4182 19.182 28.0664 13.8804 28.0664C8.57877 28.0664 4.28037 26.4182 4.28037 24.3846V9.65732M23.4804 9.65732C23.4804 13.3391 21.0804 12.1119 21.0804 14.5664V16.4073C21.0804 16.8956 20.8907 17.3638 20.5532 17.709C20.2156 18.0543 19.7578 18.2482 19.2804 18.2482C18.803 18.2482 18.3451 18.0543 18.0076 17.709C17.67 17.3638 17.4804 16.8956 17.4804 16.4073V15.7937C17.4804 15.4682 17.3539 15.156 17.1289 14.9259C16.9039 14.6957 16.5986 14.5664 16.2804 14.5664C15.9621 14.5664 15.6569 14.6957 15.4318 14.9259C15.2068 15.156 15.0804 15.4682 15.0804 15.7937V20.7028C15.0804 21.5165 14.7643 22.2969 14.2017 22.8723C13.6391 23.4477 12.876 23.771 12.0804 23.771C11.2847 23.771 10.5217 23.4477 9.95905 22.8723C9.39644 22.2969 9.08037 21.5165 9.08037 20.7028V15.7937C9.08037 15.4682 8.95394 15.156 8.7289 14.9259C8.50386 14.6957 8.19863 14.5664 7.88037 14.5664C6.08037 14.5664 4.28037 13.3391 4.28037 9.65732" stroke="black" stroke-width="2"/>
</svg>
