<svg width="29" height="30" viewBox="0 0 29 30" fill="none" xmlns="http://www.w3.org/2000/svg">
<path d="M4.2695 25.5972L22.6058 6.50215M7.90651 26.9171L5.07613 26.0996C4.76959 26.0096 4.49054 25.8388 4.26596 25.6036C4.04139 25.3684 3.87888 25.0769 3.79417 24.7571L3.00195 21.8096L20.1499 3.95215L25.0401 9.05215L7.90651 26.9171Z" stroke="black" stroke-width="1.5" stroke-linecap="round" stroke-linejoin="round"/>
<path d="M3.00216 21.8096L1.15124 27.9296C1.11954 28.0561 1.12018 28.1891 1.1531 28.3154C1.18601 28.4416 1.25005 28.5567 1.33887 28.6492C1.42769 28.7417 1.53819 28.8083 1.65941 28.8426C1.78063 28.8769 1.90834 28.8776 2.02989 28.8446L7.90672 26.9171M25.9182 1.96156L26.9726 3.05956C27.2254 3.32282 27.4259 3.63536 27.5628 3.97933C27.6996 4.32331 27.77 4.69199 27.77 5.06431C27.77 5.43663 27.6996 5.80531 27.5628 6.14928C27.4259 6.49326 27.2254 6.8058 26.9726 7.06906L25.0475 9.07381L20.1429 3.96631L22.068 1.96156C22.3208 1.69827 22.6209 1.48942 22.9512 1.34693C23.2815 1.20444 23.6356 1.1311 23.9931 1.1311C24.3506 1.1311 24.7047 1.20444 25.035 1.34693C25.3653 1.48942 25.6654 1.69827 25.9182 1.96156Z" stroke="black" stroke-width="1.5" stroke-linecap="round" stroke-linejoin="round"/>
<path d="M2.57016 28.6646C2.65197 28.5794 2.71687 28.4783 2.76114 28.367C2.80542 28.2556 2.82821 28.1363 2.82821 28.0159C2.82821 27.8954 2.80542 27.7761 2.76114 27.6648C2.71687 27.5534 2.65197 27.4523 2.57016 27.3671C2.48835 27.2819 2.39123 27.2143 2.28434 27.1682C2.17745 27.1221 2.06289 27.0984 1.94719 27.0984C1.83149 27.0984 1.71693 27.1221 1.61004 27.1682C1.50315 27.2143 1.40603 27.2819 1.32422 27.3671" stroke="black" stroke-width="1.5" stroke-linecap="round" stroke-linejoin="round"/>
</svg>
