<svg width="28" height="28" viewBox="0 0 28 28" fill="none" xmlns="http://www.w3.org/2000/svg">
<g id="Group">
<path id="Vector" d="M1.82656 0.584351C1.32079 0.71895 0.90067 1.07788 0.668179 1.56734L0.537658 1.8447L0.525422 13.0002C0.517264 24.1149 0.517264 24.1557 0.59884 24.429C0.749755 24.9347 1.15356 25.3549 1.69196 25.571L1.92445 25.6648L7.2799 25.6771L12.6313 25.6852V25.2366V24.7879H7.40227C3.13585 24.7838 2.14062 24.7757 2.01418 24.7308C1.65117 24.6003 1.45539 24.3352 1.42276 23.9314C1.3942 23.5316 1.64709 23.1523 2.02234 23.0381C2.11615 23.0136 2.4914 22.9932 2.96046 22.9932C3.82517 22.9932 3.93121 22.9688 4.04542 22.7485C4.09844 22.6425 4.1066 21.5657 4.1066 13.3673V4.10843H9.71494H15.3233V3.65976V3.21109H9.71494H4.1066V2.0568C4.1066 1.04525 4.09844 0.890261 4.03318 0.763817C3.99647 0.686319 3.91898 0.600666 3.86187 0.572113C3.71096 0.494617 2.12023 0.506853 1.82656 0.584351ZM3.20927 11.7562V22.0959H2.62192C2.05497 22.0959 1.84287 22.1285 1.48802 22.2794C1.41868 22.308 1.4146 21.8104 1.4146 12.2008V2.0935L1.50025 1.91812C1.59814 1.71825 1.82248 1.51431 2.00602 1.46129C2.07536 1.4409 2.37311 1.4205 2.67087 1.4205L3.20927 1.41642V11.7562Z" fill="black"/>
<path id="Vector_2" d="M17.5908 0.563942C17.3135 0.629202 16.9586 0.849457 16.7221 1.10642C16.4692 1.3797 16.3305 1.6489 16.2612 2.01191C16.2285 2.18322 16.2204 3.98197 16.2285 8.41154L16.2408 14.5705L16.9097 15.6922C17.6928 17.0096 17.7254 17.0586 17.909 17.1198C18.0762 17.1728 18.2924 17.0994 18.3984 16.9525C18.4637 16.8587 19.308 15.4597 19.6629 14.856L19.8301 14.5705L19.8383 10.2266C19.8464 7.83643 19.8383 4.97312 19.8179 3.86368L19.7893 1.84468L19.6588 1.56732C19.4263 1.07787 18.994 0.710777 18.4882 0.576178C18.2557 0.514996 17.8315 0.506838 17.5908 0.563942ZM18.4025 1.49391C18.4963 1.53469 18.6228 1.62851 18.684 1.706C18.9001 1.96297 18.9246 2.07309 18.9165 2.87254L18.9124 3.21108H18.011H17.1095L17.1259 2.6482C17.1422 2.03639 17.1911 1.88139 17.4318 1.65298C17.6806 1.41641 18.0885 1.35115 18.4025 1.49391ZM18.9246 4.38169C18.9328 4.53668 18.9368 6.75963 18.9368 9.32927L18.9328 13.9995H18.0354H17.1381L17.1299 9.05191L17.1259 4.10841H18.015H18.9042L18.9246 4.38169ZM18.5453 14.9213C18.5453 14.9662 18.0599 15.8145 18.0354 15.8145C18.011 15.8145 17.5256 14.9621 17.5256 14.9213C17.5256 14.8927 17.6969 14.8764 18.0354 14.8764C18.3862 14.8764 18.5453 14.8887 18.5453 14.9213Z" fill="black"/>
<path id="Vector_3" d="M20.748 3.65971V4.10838H22.767H24.7861V8.37072V12.6331H25.2347H25.6834V8.1056C25.6834 3.12947 25.6956 3.40683 25.4387 3.27223C25.3367 3.2192 24.9981 3.21105 23.0322 3.21105H20.748V3.65971Z" fill="black"/>
<path id="Vector_4" d="M26.907 12.6617C26.8377 12.6739 24.5658 14.9172 19.7773 19.7016C15.9106 23.5643 12.721 26.7743 12.6884 26.8355C12.6149 26.9782 12.6149 27.0883 12.6924 27.2352C12.827 27.4962 12.2968 27.4799 20.0547 27.4799C27.8819 27.4799 27.2986 27.5003 27.421 27.2148C27.4699 27.0965 27.4781 26.0279 27.4781 20.032C27.4781 13.5304 27.474 12.9839 27.4087 12.8778C27.3108 12.7106 27.115 12.6249 26.907 12.6617ZM26.5807 20.4032V26.5826H20.3728H14.1649L20.3524 20.4032C23.7541 17.0056 26.5481 14.2238 26.5603 14.2238C26.5726 14.2238 26.5807 17.0056 26.5807 20.4032Z" fill="black"/>
<path id="Vector_5" d="M24.0929 19.4732C24.0358 19.5099 22.9753 20.5541 21.7354 21.794C20.2344 23.295 19.4635 24.0945 19.4227 24.1924C19.3697 24.3188 19.3697 24.3596 19.4145 24.4697C19.4472 24.5431 19.5124 24.641 19.5654 24.6859C19.6511 24.7634 19.7204 24.7675 22.025 24.7797C23.734 24.7879 24.4274 24.7756 24.5089 24.743C24.5701 24.7185 24.6599 24.637 24.7047 24.5635C24.7822 24.4371 24.7863 24.3637 24.7863 22.1C24.7863 19.5874 24.7904 19.62 24.5742 19.4691C24.4559 19.3835 24.2193 19.3876 24.0929 19.4732ZM23.8767 23.8783C23.8686 23.8865 23.2037 23.8865 22.4043 23.8824L20.9482 23.8701L22.4084 22.4099L23.8686 20.9538L23.8808 22.4059C23.8849 23.2094 23.8849 23.8701 23.8767 23.8783Z" fill="black"/>
</g>
</svg>
