<svg width="110" height="55" viewBox="0 0 110 55" fill="none" xmlns="http://www.w3.org/2000/svg">
<g id="Group">
<path id="Vector" d="M19.4406 0.399653C19.5717 0.411053 19.7883 0.411053 19.9252 0.399653C20.0563 0.388252 19.948 0.376851 19.68 0.376851C19.4121 0.376851 19.3038 0.388252 19.4406 0.399653Z" fill="#323232"/>
<path id="Vector_2" d="M19.486 0.610779C19.469 0.673405 19.4519 5.89972 19.4519 12.2134C19.4519 18.5328 19.4405 23.7022 19.4291 23.7022C19.4177 23.7022 15.7969 21.4933 11.3904 18.7947C6.97817 16.1019 2.78801 13.5399 2.07636 13.1073L0.77832 12.3216V27.6647C0.77832 36.1019 0.7954 42.9964 0.823866 42.985C0.846638 42.9679 1.47858 42.5864 2.23008 42.1367C2.98157 41.6812 4.6212 40.6849 5.8737 39.9164C9.02771 37.9807 11.5782 36.4208 14.6127 34.5762C16.036 33.7108 17.7098 32.686 18.3303 32.3103C18.9452 31.9289 19.4633 31.6157 19.4804 31.6157C19.4974 31.6157 19.5088 36.8136 19.5088 43.1615C19.5088 49.515 19.5259 54.73 19.543 54.747C19.5657 54.7641 19.6341 54.7527 19.7024 54.7186C19.8846 54.6218 28.4414 49.4069 33.5425 46.287C38.0685 43.5144 39.7879 42.4612 42.68 40.6963C44.6213 39.5121 44.9003 39.3357 44.9003 39.3015C44.8946 39.2844 43.2778 38.2881 41.2965 37.0869C38.1482 35.1683 34.8803 33.1757 27.9632 28.9399C26.3064 27.9266 26.1413 27.8127 26.1413 27.6704C26.1413 27.5337 26.4032 27.3572 29.3864 25.5411C41.0403 18.4361 44.9515 16.0392 44.9572 16.0165C44.9572 15.9994 44.8491 15.9197 44.7181 15.84C44.5815 15.7603 42.8735 14.7127 40.9151 13.5115C38.9566 12.3102 35.1308 9.97033 32.4038 8.31362C29.6825 6.65691 26.4659 4.69278 25.2589 3.95836C24.052 3.21825 22.27 2.13655 21.2908 1.55015C19.6682 0.576622 19.5145 0.496918 19.486 0.610779ZM26.6936 12.6404C28.003 13.4375 31.3107 15.4358 31.7377 15.6863C31.9939 15.84 32.2046 15.9823 32.2046 16.0051C32.2046 16.062 31.288 16.6313 27.4166 18.9769L26.1129 19.7683V16.0449C26.1129 13.9954 26.1243 12.3159 26.1413 12.3159C26.1527 12.3159 26.4032 12.4582 26.6936 12.6404ZM8.66335 24.949C9.22697 25.2963 10.4624 26.0478 11.4074 26.6171C12.3582 27.1921 13.1325 27.6704 13.1268 27.6874C13.1268 27.7159 7.59303 31.1147 7.49625 31.1489C7.4564 31.1603 7.43932 29.9249 7.43932 27.6874C7.43932 24.3911 7.44501 24.2146 7.54179 24.2659C7.59303 24.2943 8.09972 24.6018 8.66335 24.949ZM28.4812 37.0527C31.5669 38.9314 31.9939 39.199 32.0793 39.273C32.1362 39.3243 31.8117 39.5463 30.6276 40.2807C29.2441 41.1347 26.5 42.8028 26.2211 42.9451C26.1129 43.0077 26.1129 42.9508 26.1129 39.3243C26.1129 36.2955 26.1243 35.6522 26.1869 35.675C26.2324 35.692 27.2629 36.3126 28.4812 37.0527Z" fill="#323232"/>
<path id="Vector_3" d="M76.7538 10.1584C73.4574 10.2154 72.9052 10.2438 72.3416 10.3748C69.7796 10.9612 67.7472 12.6407 66.5345 15.1798C65.7887 16.7397 65.4927 18.146 65.4927 20.1442C65.487 24.6418 67.2234 27.5795 70.5198 28.6441C71.2656 28.8889 71.8292 28.9914 72.6945 29.0484C75.6379 29.2419 78.2966 28.2513 79.7768 26.4067C80.4486 25.5755 80.9098 24.4938 81.0521 23.4292C81.1375 22.7973 81.0976 21.522 80.9667 20.9413C80.4088 18.3851 78.7236 16.791 76.099 16.3241C75.376 16.1932 73.9698 16.1932 73.2923 16.3241C72.3017 16.512 71.2883 16.9561 70.5198 17.5368C70.0643 17.8784 70.0472 17.8613 70.2408 17.235C70.6621 15.8459 71.7666 14.7642 73.2525 14.2746L73.7364 14.1152L76.2755 14.0924L78.809 14.0753L79.3157 13.153C80.2551 11.428 80.9382 10.1641 80.9382 10.13C80.9382 10.0901 80.1298 10.0958 76.7538 10.1584ZM73.9413 19.797C75.08 20.0019 75.8315 20.7306 76.0706 21.8522C76.4065 23.4577 75.5753 24.9493 74.1349 25.325C73.4574 25.5015 72.6148 25.4104 71.9886 25.0916C71.6128 24.898 71.1403 24.4312 70.9467 24.0498C70.2522 22.6777 70.5881 20.9868 71.7039 20.2183C72.0227 19.9962 72.501 19.8311 72.9678 19.7742C73.4916 19.7116 73.4631 19.7116 73.9413 19.797Z" fill="#323232"/>
<path id="Vector_4" d="M58.0288 14.6559C55.7572 14.8722 53.6166 15.8799 52.3527 17.3431C51.5671 18.254 51.0319 19.273 50.7871 20.3433C50.6505 20.9411 50.622 22.4327 50.7302 23.0761C50.9864 24.5563 51.5841 25.7234 52.5918 26.7197C54.7609 28.8717 58.4615 29.5777 61.7977 28.4789C62.3727 28.291 63.369 27.8526 63.4259 27.7558C63.443 27.7274 63.1242 27.0897 62.7143 26.3439C61.6952 24.488 61.6724 24.4424 61.6212 24.4424C61.5984 24.4424 61.4846 24.488 61.365 24.5506C61.0576 24.7043 60.3175 24.9377 59.7311 25.0687C58.1484 25.416 56.6226 24.9776 55.7402 23.9243C55.1253 23.1899 54.8919 22.057 55.1424 21.0664C55.3189 20.3946 55.5238 20.0245 55.9736 19.5748C56.6738 18.8745 57.3912 18.6126 58.6209 18.6069C59.5147 18.6069 59.9417 18.7037 60.9836 19.1307C61.3251 19.273 61.6553 19.3926 61.7066 19.3983C61.7806 19.404 62.0596 18.9542 62.7484 17.7302C63.2665 16.8079 63.6821 16.0222 63.665 15.9824C63.591 15.7888 62.2702 15.1455 61.4959 14.9292C60.5623 14.6673 59.1048 14.5534 58.0288 14.6559Z" fill="#323232"/>
<path id="Vector_5" d="M84.3709 14.9742L83.3291 14.9913V21.7662V28.541H85.7487H88.1683V23.7872V19.0334H90.4456H92.7228V23.7872V28.541H95.1139H97.5051V21.7662V14.9913H95.6719C94.6585 14.9913 91.9372 14.9799 89.62 14.9685C87.3029 14.9571 84.9403 14.9628 84.3709 14.9742Z" fill="#323232"/>
<path id="Vector_6" d="M83.7505 32.8918C83.6424 32.9658 83.3634 33.0569 83.073 33.1195C82.1508 33.296 81.701 33.6148 81.3651 34.3094C81.1203 34.8104 81.0349 35.3341 81.0634 36.1881C81.0804 36.7859 81.1032 36.9282 81.2285 37.1958C81.4334 37.6342 81.6839 37.9017 82.0654 38.0896C82.3386 38.2263 82.4582 38.249 82.8453 38.249C83.3805 38.2433 83.6936 38.1238 84.0693 37.7879C84.7241 37.1958 84.8322 36.0629 84.3028 35.3341C83.7961 34.6339 82.5664 34.5883 81.8946 35.243L81.6839 35.448L81.7636 35.095C81.9059 34.4972 82.1508 34.1386 82.5607 33.9336C82.6574 33.8881 82.9478 33.8027 83.2154 33.7514C83.7164 33.649 84.2231 33.4326 84.2743 33.3017C84.3028 33.2277 84.0181 32.7551 83.9555 32.7608C83.9384 32.7608 83.8473 32.8234 83.7505 32.8918ZM83.2438 35.4366C83.9669 35.6416 84.1889 36.6948 83.6367 37.3097C83.1357 37.8619 82.2418 37.7366 81.9003 37.0648C81.7238 36.7233 81.6953 36.1938 81.8433 35.9661C82.1337 35.4992 82.703 35.2886 83.2438 35.4366Z" fill="#323232"/>
<path id="Vector_7" d="M53.5202 34.7067C52.9908 34.8433 52.5752 35.1906 52.3474 35.6859C52.1596 36.0901 52.1596 36.8814 52.3474 37.2572C52.5239 37.6159 52.8371 37.9233 53.2128 38.0998C53.8391 38.3901 54.8126 38.2592 55.2339 37.8208L55.3876 37.6614L55.251 37.4565C55.1769 37.3426 55.0972 37.2515 55.0745 37.2515C55.046 37.2515 54.9435 37.3141 54.8467 37.3881C54.4482 37.6842 53.9757 37.724 53.5145 37.5134C52.8086 37.1832 52.6606 36.1926 53.2356 35.6233C53.6341 35.219 54.2034 35.1564 54.7386 35.4582C55.0175 35.6176 55.0118 35.6176 55.1997 35.3044L55.325 35.0938L55.194 35.0084C54.7215 34.701 54.0383 34.5757 53.5202 34.7067Z" fill="#323232"/>
<path id="Vector_8" d="M61.5531 34.6851C61.0749 34.8104 60.6251 35.1804 60.3803 35.6586C60.2664 35.875 60.2437 36.0002 60.2437 36.4557C60.2437 36.9111 60.2664 37.0421 60.3803 37.2755C60.5625 37.6399 60.8471 37.9188 61.2343 38.101C61.5075 38.2263 61.6271 38.249 62.0655 38.249C62.5038 38.2433 62.6177 38.2206 62.8625 38.0953C63.0219 38.0156 63.2098 37.896 63.2838 37.8391L63.4204 37.7253L63.2895 37.4918C63.2155 37.3609 63.1358 37.2527 63.113 37.2527C63.0845 37.2527 62.9707 37.3153 62.8568 37.395C62.333 37.748 61.7353 37.7253 61.2969 37.3324C60.6991 36.7916 60.8016 35.7668 61.4961 35.4081C61.832 35.2316 62.3729 35.243 62.76 35.4423L63.0561 35.596L63.1984 35.3398L63.335 35.0893L63.1756 34.9755C63.0845 34.9128 62.9194 34.8217 62.8056 34.7705C62.5665 34.6737 61.7979 34.6168 61.5531 34.6851Z" fill="#323232"/>
<path id="Vector_9" d="M68.4418 34.6847C67.8782 34.8441 67.5594 35.1003 67.3203 35.5842C67.1495 35.9372 67.1324 36.0112 67.1381 36.4837C67.1381 37.0758 67.252 37.3833 67.5992 37.7306C68.1287 38.26 69.1022 38.4023 69.848 38.0608C70.2921 37.8558 70.3092 37.833 70.201 37.5484C70.1441 37.4174 70.0872 37.315 70.0701 37.3263C69.6545 37.5541 69.4324 37.6167 69.0396 37.6167C68.6753 37.6224 68.5728 37.5996 68.3451 37.4687C68.1002 37.3206 67.8441 36.9563 67.8441 36.7513C67.8441 36.7001 68.1799 36.683 69.1478 36.683H70.4515L70.4914 36.5065C70.5768 36.1251 70.3946 35.5159 70.0929 35.1572C69.7683 34.7701 68.9656 34.5424 68.4418 34.6847ZM69.4666 35.4305C69.6317 35.533 69.8367 35.8803 69.8367 36.0568C69.8367 36.0909 69.4552 36.1137 68.8404 36.1137C68.123 36.1137 67.8441 36.0966 67.8441 36.0454C67.8441 36.0112 67.9067 35.8746 67.9864 35.7436C68.1116 35.5216 68.3166 35.3793 68.6126 35.2996C68.8233 35.2426 69.273 35.311 69.4666 35.4305Z" fill="#323232"/>
<path id="Vector_10" d="M76.7251 34.707C76.5543 34.7469 76.3323 34.8266 76.2355 34.8778L76.0533 34.9689L76.1387 35.2251L76.2241 35.4756L76.486 35.3561C76.839 35.2024 77.3798 35.191 77.6018 35.3333C77.784 35.4585 77.9207 35.7432 77.9207 36.0222V36.2157L77.6815 36.1303C77.135 35.9425 76.281 36.1246 75.9907 36.489C75.7231 36.8306 75.7003 37.4113 75.9451 37.7757C76.1729 38.1059 76.4063 38.2197 76.8617 38.2197C77.2602 38.2197 77.6815 38.0888 77.7726 37.9408C77.8409 37.8326 77.9207 37.8724 77.9207 38.0205C77.9207 38.1571 77.9377 38.1628 78.2338 38.1628H78.5469V36.9217C78.5469 36.2442 78.5184 35.5952 78.49 35.4813C78.4046 35.1796 78.2053 34.912 77.9719 34.7924C77.7043 34.6558 77.1236 34.616 76.7251 34.707ZM77.8239 36.7452C78.0573 36.8534 78.0402 37.1323 77.7783 37.3601C77.3001 37.7814 76.6454 37.7244 76.5258 37.2519C76.3949 36.7167 77.1293 36.4321 77.8239 36.7452Z" fill="#323232"/>
<path id="Vector_11" d="M91.4022 34.713C90.6337 34.918 90.144 35.5955 90.144 36.4665C90.144 37.2408 90.5084 37.7987 91.2257 38.1175C91.6527 38.3111 92.3644 38.2997 92.7857 38.0948C92.9565 38.0094 93.1557 37.8784 93.2297 37.7987L93.3607 37.6621L93.1899 37.4287C93.0419 37.2237 93.0134 37.2066 92.9451 37.2863C92.6661 37.6222 91.8805 37.7304 91.4307 37.4913C91.0663 37.3034 90.8785 36.9789 90.8557 36.5177C90.8272 36.0224 90.9866 35.7036 91.3852 35.4588C91.8292 35.1855 92.2847 35.2197 92.9565 35.5841C92.9792 35.5955 93.0589 35.4873 93.1386 35.345L93.2867 35.0888L93.076 34.9464C92.649 34.6675 91.9431 34.5707 91.4022 34.713Z" fill="#323232"/>
<path id="Vector_12" d="M98.3822 34.861C98.2 34.9521 98.0406 35.0318 98.0349 35.0318C98.0235 35.0318 98.0178 34.9692 98.0178 34.8895C98.0178 34.7528 98.0008 34.7471 97.7047 34.7471H97.3916V37.2237V39.7002H97.7047H98.0178V38.9032C98.0178 38.4648 98.0349 38.1061 98.052 38.1061C98.0691 38.1061 98.2285 38.146 98.405 38.1972C99.1337 38.4078 99.9478 38.1687 100.358 37.6279C100.659 37.2294 100.768 36.8365 100.739 36.2672C100.682 35.2538 100.119 34.6959 99.1508 34.6902C98.7807 34.6902 98.6669 34.713 98.3822 34.861ZM99.5038 35.4076C99.8966 35.6068 100.136 36.2274 100.01 36.7284C99.8567 37.366 99.4298 37.6848 98.7978 37.6393C98.6042 37.6222 98.3481 37.571 98.2342 37.5197L98.0178 37.4286V36.5747V35.7207L98.2171 35.5613C98.3253 35.4759 98.4961 35.3734 98.5986 35.3335C98.8206 35.2481 99.276 35.288 99.5038 35.4076Z" fill="#323232"/>
<path id="Vector_13" d="M101.604 36.4263V38.1627L102.105 38.1741C103.289 38.1912 103.688 38.083 103.978 37.6446C104.194 37.3201 104.229 36.7622 104.063 36.3807C103.87 35.9481 103.323 35.6919 102.629 35.7203C102.486 35.726 102.338 35.726 102.304 35.7203C102.253 35.7146 102.23 35.5723 102.23 35.2023V34.6899H101.917H101.604V36.4263ZM103.158 36.4491C103.38 36.5345 103.517 36.8476 103.449 37.1152C103.375 37.4283 103.181 37.5365 102.669 37.5763L102.23 37.6105V36.9671V36.3238L102.617 36.358C102.828 36.3751 103.067 36.4149 103.158 36.4491Z" fill="#323232"/>
<path id="Vector_14" d="M56.1162 36.4551V38.1631H56.4464H56.7709L57.7274 36.9334L58.6781 35.7093V36.9334V38.1631H59.0197H59.3613V36.4551V34.7472H59.0254H58.6952L57.7615 35.9484L56.8279 37.1554L56.8108 35.9484L56.7994 34.7472H56.4578H56.1162V36.4551Z" fill="#323232"/>
<path id="Vector_15" d="M63.688 35.0603V35.3734H64.3142H64.9405V36.7683V38.1631H65.2536H65.5667V36.7683V35.3734H66.193H66.8192V35.0603V34.7472H65.2536H63.688V35.0603Z" fill="#323232"/>
<path id="Vector_16" d="M71.2598 35.1628C71.2598 35.3962 71.2768 36.1648 71.2996 36.8707L71.3338 38.1631H71.6355H71.9429L71.9543 36.9561L71.9714 35.7492L72.5692 36.5235C72.8994 36.9447 73.1897 37.2806 73.2125 37.2693C73.241 37.2522 73.5086 36.9049 73.8103 36.495L74.3625 35.7435L74.3796 36.9561L74.391 38.1631H74.7041H75.0173V36.4551V34.7472H74.7155H74.4138L73.8217 35.5442C73.4972 35.9826 73.2125 36.3413 73.1897 36.3413C73.1613 36.3413 72.8652 35.9826 72.5293 35.5499L71.9145 34.7529H71.59L71.2598 34.7472V35.1628Z" fill="#323232"/>
<path id="Vector_17" d="M85.4927 36.4551V38.1631H86.2556C87.3031 38.1631 87.6276 38.0378 87.8838 37.5368C88.2026 36.9049 87.9863 36.142 87.4056 35.8801C87.2348 35.8004 87.0355 35.772 86.6484 35.772H86.1189V35.2596V34.7472H85.8058H85.4927V36.4551ZM87.0811 36.4779C87.3373 36.6145 87.4227 36.9391 87.2803 37.2294C87.1551 37.4856 86.916 37.5824 86.4207 37.5881L86.1189 37.5938V36.9618V36.3242L86.5118 36.3584C86.7281 36.3754 86.9843 36.4324 87.0811 36.4779Z" fill="#323232"/>
<path id="Vector_18" d="M88.6812 36.4833V38.2197H88.9943H89.3074V36.4833V34.7469H88.9943H88.6812V36.4833Z" fill="#323232"/>
<path id="Vector_19" d="M93.5771 34.9294C93.5771 35.3734 93.5771 35.3734 94.266 35.3734H94.8866V36.7683V38.1631H95.1997H95.5128V36.7683V35.3734H96.1391H96.7653V35.0603V34.7472H95.1712H93.5771V34.9294Z" fill="#323232"/>
<path id="Vector_20" d="M104.792 36.4551V38.1631H105.106H105.419V36.4551V34.7472H105.106H104.792V36.4551Z" fill="#323232"/>
<path id="Vector_21" d="M106.478 35.1286C106.626 35.345 106.899 35.715 107.081 35.9598C107.292 36.2274 107.4 36.4267 107.377 36.4722C107.349 36.5064 107.087 36.8707 106.785 37.2806C106.484 37.6849 106.222 38.0549 106.193 38.0891C106.165 38.146 106.239 38.1631 106.523 38.1631H106.893L107.383 37.5084C107.651 37.1497 107.884 36.8537 107.895 36.8537C107.907 36.8537 108.129 37.1497 108.391 37.5084L108.863 38.1631H109.245C109.461 38.1631 109.632 38.1517 109.632 38.1346C109.632 38.1175 109.347 37.719 109.006 37.2465L108.374 36.3925L108.852 35.7549C109.114 35.4019 109.381 35.0318 109.455 34.9294L109.581 34.7472H109.193H108.806L108.362 35.3791L107.913 36.0054L107.463 35.3734L107.007 34.7472H106.603H106.205L106.478 35.1286Z" fill="#323232"/>
<path id="Vector_22" d="M80.6251 40.098C80.5511 40.2119 80.7276 40.6388 80.9325 40.8438C81.3424 41.2537 82.185 41.2879 82.6006 40.9121C82.7487 40.7755 82.9138 40.4567 82.9365 40.2403C82.9593 40.0695 82.9536 40.0695 82.669 40.0524L82.3786 40.0354L82.2818 40.2859C82.0826 40.8153 81.4677 40.7869 81.2741 40.2403C81.2058 40.0524 81.1887 40.0411 80.9325 40.0411C80.7845 40.0411 80.6422 40.0638 80.6251 40.098Z" fill="#323232"/>
<path id="Vector_23" d="M61.1261 41.8413C60.9837 41.8869 60.8243 41.9552 60.7674 42.0007C60.6706 42.0747 60.6706 42.0918 60.7617 42.3138C60.8129 42.4391 60.8585 42.5473 60.8642 42.5473C60.8699 42.5473 61.0179 42.496 61.2001 42.4334C61.5815 42.2968 61.906 42.2911 62.1793 42.3992C62.407 42.496 62.4867 42.627 62.5436 43.0084C62.5892 43.2817 62.5835 43.2931 62.4696 43.2589C61.2968 42.923 60.4429 43.3557 60.4429 44.2951C60.4429 44.9384 60.8585 45.3369 61.5189 45.3369C61.8434 45.3369 62.2476 45.1946 62.4469 45.0124C62.5436 44.927 62.5493 44.9327 62.5493 45.0978V45.28H62.8625H63.1756V44.0389C63.1756 42.6213 63.1243 42.348 62.8169 42.0463C62.7144 41.9438 62.538 41.8356 62.4298 41.8072C62.1508 41.7275 61.4278 41.7445 61.1261 41.8413ZM62.3501 43.8055C62.5038 43.8795 62.5209 43.9136 62.5209 44.1414C62.5209 44.3805 62.5095 44.4032 62.2419 44.5683C61.6954 44.9042 61.0976 44.7221 61.109 44.2267C61.1147 43.9933 61.2001 43.8681 61.4392 43.7599C61.6441 43.6688 62.111 43.6916 62.3501 43.8055Z" fill="#323232"/>
<path id="Vector_24" d="M68.4132 41.8011C67.9179 41.9548 67.525 42.3021 67.3087 42.7689C67.1379 43.1561 67.1436 43.9474 67.3201 44.346C67.6674 45.1145 68.527 45.5187 69.4095 45.3366C69.7226 45.2739 70.1097 45.1145 70.2748 44.9836C70.3204 44.9494 70.3147 44.8697 70.2464 44.6932C70.1325 44.3858 70.1439 44.3972 69.9902 44.4997C69.8137 44.6135 69.2899 44.7672 69.0736 44.7672C68.6124 44.7672 68.1342 44.4769 67.9805 44.1011C67.8211 43.7254 67.7642 43.7425 69.2444 43.7425H70.5937L70.5538 43.3041C70.5367 43.0479 70.4684 42.7689 70.4001 42.6209C70.2407 42.2907 69.8308 41.9377 69.4778 41.8353C69.1761 41.7442 68.6523 41.7271 68.4132 41.8011ZM69.4778 42.5241C69.6714 42.6722 69.8137 42.8771 69.8592 43.0707L69.8934 43.2301H68.8686H67.8439L67.9293 43.0194C68.0431 42.7519 68.2196 42.5583 68.4416 42.4558C68.6921 42.3363 69.2842 42.3818 69.4778 42.5241Z" fill="#323232"/>
<path id="Vector_25" d="M77.0783 41.8527C76.6399 42.0122 76.3838 42.2399 76.1617 42.6726C75.9966 43.0085 75.9738 43.1052 75.9738 43.5265C75.9682 44.0389 76.0763 44.3805 76.361 44.7506C76.6684 45.1548 77.3914 45.4224 78.012 45.3654C78.3821 45.3256 79.0368 45.058 79.088 44.9214C79.1165 44.853 78.9741 44.4261 78.9229 44.4261C78.9115 44.4261 78.7635 44.4887 78.5984 44.5627C78.16 44.7619 77.8697 44.7961 77.5053 44.6879C77.0271 44.5456 76.8563 44.3748 76.7026 43.8681L76.6627 43.7429H78.012H79.3613L79.3328 43.2988C79.2759 42.348 78.7464 41.8129 77.807 41.7673C77.4939 41.7503 77.3004 41.773 77.0783 41.8527ZM78.2056 42.4847C78.4162 42.5929 78.5699 42.8092 78.6326 43.0711L78.6724 43.2305H77.6704C77.0897 43.2305 76.6684 43.2077 76.6684 43.1793C76.6684 42.9401 76.9417 42.5758 77.2093 42.4562C77.4655 42.3424 77.9721 42.3594 78.2056 42.4847Z" fill="#323232"/>
<path id="Vector_26" d="M52.4497 42.0684C52.4326 42.2164 52.4155 42.9963 52.4155 43.8048V45.2793H52.7571H53.0987V43.856V42.4327H54.0096H54.9205V43.856V45.2793H55.2336H55.5468V43.5429V41.8065H54.0153H52.4895L52.4497 42.0684Z" fill="#323232"/>
<path id="Vector_27" d="M57.1805 41.8468C57.1577 41.8639 57.1406 42.0631 57.1406 42.2852C57.1406 43.3441 56.9186 44.2493 56.5941 44.5397C56.4859 44.6307 56.372 44.7104 56.3436 44.7104C56.2753 44.7104 56.2696 45.1659 56.3322 45.2627C56.3891 45.3538 56.8218 45.257 57.0438 45.0976C57.3911 44.8528 57.6587 44.0216 57.7384 42.957L57.7783 42.4332H58.3419H58.9055V43.8565V45.2798H59.2471H59.5887V43.5433V41.8069H58.4045C57.7498 41.8069 57.1976 41.824 57.1805 41.8468Z" fill="#323232"/>
<path id="Vector_28" d="M63.7163 41.8691C63.6935 41.9033 63.6935 42.0399 63.7163 42.1822L63.7505 42.4327H64.3767H64.9973V43.856V45.2793H65.3104H65.6235V43.856V42.4327H66.2498H66.876V42.1196V41.8065H65.3161C64.2628 41.8065 63.7391 41.8292 63.7163 41.8691Z" fill="#323232"/>
<path id="Vector_29" d="M70.9236 41.983C70.9919 42.0797 71.2709 42.4498 71.5498 42.8085C71.8288 43.1671 72.0565 43.4746 72.0565 43.486C72.0565 43.4973 71.7776 43.8902 71.4303 44.3513C71.0887 44.8125 70.804 45.211 70.804 45.2338C70.804 45.2622 70.9691 45.2793 71.1684 45.2793H71.5385L71.8743 44.8068C72.0565 44.5506 72.3412 44.1464 72.5063 43.9072L72.808 43.4689L72.2216 42.6377L71.6352 41.8065H71.2139H70.7983L70.9236 41.983Z" fill="#323232"/>
<path id="Vector_30" d="M72.9106 43.5429V45.2793H73.2238H73.5369V43.5429V41.8065H73.2238H72.9106V43.5429Z" fill="#323232"/>
<path id="Vector_31" d="M74.3572 42.5067C74.0896 42.8939 73.8277 43.2753 73.7765 43.355C73.6911 43.4973 73.7025 43.5201 74.3116 44.3855L74.9322 45.2736H75.3478L75.7577 45.2793L75.0859 44.3798L74.4084 43.486L75.0233 42.6889C75.3649 42.2505 75.6381 41.8748 75.6438 41.8463C75.6438 41.8235 75.4673 41.8065 75.251 41.8065H74.8525L74.3572 42.5067Z" fill="#323232"/>
<path id="Vector_32" d="M80.1411 43.5429V45.2793H80.4485H80.7503L81.7124 44.0496L82.6746 42.8199L82.703 44.0382L82.7315 45.2508H83.0446H83.3577L83.3748 43.5258L83.3862 41.8065H83.0503H82.7144L81.758 43.0419L80.7958 44.283L80.7787 43.0419L80.7674 41.8065H80.4542H80.1411V43.5429Z" fill="#323232"/>
</g>
</svg>
