<svg width="66" height="58" viewBox="0 0 66 58" fill="none" xmlns="http://www.w3.org/2000/svg">
<path fill-rule="evenodd" clip-rule="evenodd" d="M32.8962 0.0815686L21.0533 0.0892274L20.9996 0.17108C20.9501 0.246698 20.9456 0.382191 20.9404 1.94872C20.9365 3.1049 20.9449 3.65674 20.9668 3.68308C20.9925 3.71405 21.9461 3.72177 25.8006 3.72213C28.5234 3.7224 30.6208 3.73418 30.6447 3.74931C30.6807 3.77211 30.6859 5.57808 30.6805 16.0179C30.6741 28.1758 30.6745 28.2604 30.734 28.3338L30.7939 28.4078H32.8535C34.2964 28.4078 34.9229 28.3979 34.946 28.3749C34.9696 28.3513 34.9788 24.8744 34.9784 16.0848C34.9781 8.46011 34.9887 3.81046 35.0065 3.78222C35.0316 3.74223 35.6205 3.73581 39.9545 3.72855C44.8257 3.72034 44.8743 3.71968 44.9061 3.66019C44.928 3.6193 44.9355 3.05713 44.9295 1.8976C44.9203 0.11859 44.9151 0.0483912 44.791 0.0664026C44.7625 0.0705497 39.4098 0.0773609 32.8962 0.0815686ZM0.605015 31.9074C0.542596 31.9176 0.479026 31.9448 0.463739 31.968C0.430169 32.0188 0.443549 33.8347 0.478027 33.9066C0.491226 33.9341 0.531729 33.9646 0.568024 33.9743C0.604349 33.984 15.1841 33.9922 32.9675 33.9924C62.9969 33.9928 65.3039 33.9893 65.3425 33.9428C65.4028 33.8702 65.4221 32.0351 65.3634 31.9571C65.3254 31.9067 63.7493 31.9037 33.021 31.8965C15.2546 31.8924 0.667465 31.8973 0.605015 31.9074ZM49.6128 37.6879C48.8037 37.7977 47.805 38.086 47.1759 38.3914C46.27 38.8314 45.7894 39.2306 45.097 40.1186C44.8219 40.4713 44.5332 41.1369 44.4074 41.7084C44.3803 41.8314 44.3379 41.9805 44.3131 42.0398C44.2598 42.1673 44.2356 42.5247 44.2379 43.1493C44.2397 43.6438 44.2486 43.7259 44.33 43.9974C44.36 44.0973 44.4137 44.3085 44.4494 44.4666C44.5246 44.7995 44.7249 45.2894 44.8795 45.5186C45.2641 46.0885 46.0216 46.8335 46.6311 47.2413C47.0114 47.4958 47.9215 47.9855 48.3111 48.1452C48.4443 48.1999 48.6486 48.2845 48.7652 48.3334C48.8817 48.3823 49.0929 48.4603 49.2344 48.5067C49.3759 48.5532 49.6347 48.6563 49.8095 48.736C49.9843 48.8157 50.3099 48.9641 50.533 49.0657C50.9696 49.2646 51.6534 49.6963 51.9951 49.9886C52.1739 50.1416 52.5899 50.6414 52.6775 50.8085C52.7536 50.9537 52.9355 51.482 52.9779 51.6809C53.0325 51.9368 53.0516 52.5362 53.0148 52.8366C52.9605 53.2802 52.7159 53.9255 52.5167 54.1505C52.4489 54.227 52.3515 54.3509 52.3001 54.4259C52.1743 54.6095 52.0521 54.7202 51.7469 54.9272C51.3032 55.2282 50.8699 55.4052 50.1879 55.5639C49.8354 55.6459 49.8002 55.6484 48.9922 55.6464C48.231 55.6445 48.1222 55.6375 47.7208 55.565C47.2469 55.4793 46.6042 55.3173 46.2573 55.1962C45.7175 55.0076 44.9259 54.6506 44.7965 54.5372C44.6171 54.3801 44.551 54.3933 44.4442 54.6075C44.3985 54.6991 44.3122 54.9306 44.2523 55.1221C44.1924 55.3136 44.1053 55.586 44.0588 55.7275C43.9482 56.064 43.8461 56.4386 43.8461 56.5078C43.8461 56.6031 44.0635 56.7761 44.3305 56.8933C45.0719 57.2189 45.3135 57.2995 46.1316 57.4944C47.139 57.7343 47.4315 57.7827 48.1074 57.8209C48.4525 57.8404 48.7894 57.854 48.856 57.8513C50.0613 57.8012 50.2008 57.7893 50.6571 57.6964C50.9152 57.6438 51.2353 57.5683 51.3685 57.5286C52.3755 57.228 52.3479 57.239 52.988 56.8833C53.4715 56.6146 53.7672 56.3961 54.1642 56.0143C54.4887 55.7021 54.6059 55.5534 54.963 55.001C55.1715 54.6786 55.2319 54.5533 55.3716 54.1534C55.5509 53.6406 55.6152 53.3532 55.7111 52.6366L55.7743 52.1642L55.7112 51.6533C55.63 50.9963 55.5911 50.8172 55.4206 50.3141C55.2718 49.8751 55.2014 49.7141 55.0944 49.5673C55.0579 49.5174 54.969 49.3812 54.8968 49.2646C54.6615 48.8851 54.2272 48.4053 53.8356 48.0923C53.0626 47.4744 51.8172 46.8025 50.7631 46.4346C50.5133 46.3475 50.2545 46.2445 50.1879 46.2058C50.1213 46.1671 49.8941 46.0602 49.6829 45.9683C48.4975 45.4524 47.8843 45.0315 47.3993 44.4013C47.1093 44.0244 46.9756 43.6462 46.9014 42.9926C46.8578 42.608 46.8772 42.4409 47.0289 41.8993C47.1385 41.5077 47.2109 41.3677 47.4691 41.0476C47.908 40.5038 48.607 40.1061 49.4311 39.9316C49.76 39.8619 49.8632 39.8544 50.5209 39.8525C51.1376 39.8506 51.3113 39.8606 51.6702 39.9187C52.3812 40.0339 52.975 40.2117 53.548 40.4812C53.8786 40.6367 53.9681 40.6664 54.1078 40.667L54.274 40.6676L54.3108 40.5465C54.331 40.4799 54.464 40.0765 54.6062 39.6501C54.7485 39.2236 54.8648 38.8282 54.8648 38.7714C54.8648 38.7146 54.8434 38.6375 54.8173 38.6002C54.7168 38.4567 54.155 38.2298 53.4011 38.0282C52.2816 37.7288 51.7153 37.6542 50.6021 37.6595C50.1578 37.6616 49.7127 37.6744 49.6128 37.6879ZM14.4982 37.9175C13.9585 37.9801 13.6094 38.0133 13.1209 38.0485C12.5024 38.0932 11.8031 38.1633 11.6091 38.2001C11.4503 38.2303 11.305 38.2993 11.3043 38.345C11.3041 38.3571 11.3033 42.65 11.3025 47.8847C11.3012 57.0258 11.3033 57.4045 11.3558 57.456C11.4007 57.4999 11.5195 57.5179 12.016 57.5559C12.9311 57.6261 13.6135 57.6634 14.3165 57.6817C14.666 57.6908 15.0134 57.712 15.0884 57.7288C15.2599 57.7673 16.2857 57.7646 16.5272 57.7251C16.6266 57.7088 16.8081 57.6954 16.9304 57.6953C17.2325 57.6951 18.2937 57.5872 18.7211 57.5132C18.9125 57.4801 19.2803 57.4194 19.5384 57.3784C20.0329 57.2998 20.4775 57.1824 21.1276 56.9587C22.0541 56.64 22.6041 56.3829 23.2086 55.9863C23.3874 55.8689 23.6122 55.7223 23.708 55.6604C23.9894 55.4787 24.6597 54.8756 24.9006 54.5874C25.0232 54.4409 25.1598 54.2899 25.2042 54.2518C25.2884 54.1795 25.6594 53.6331 25.8348 53.323C25.8907 53.2242 25.9823 53.0743 26.0383 52.99C26.2423 52.6831 26.5235 52.0484 26.7734 51.331C27.0043 50.668 27.09 50.3178 27.1807 49.6657C27.2218 49.3701 27.269 49.1029 27.2856 49.0719C27.4083 48.8427 27.4091 45.8635 27.2866 45.5715C27.2463 45.4757 27.1744 45.1066 27.1516 44.8792C27.1289 44.6515 26.9528 43.9258 26.8768 43.7467C26.8506 43.6848 26.7772 43.498 26.7138 43.3315C26.5259 42.8383 26.2387 42.2385 26.076 41.9995C26.0306 41.933 25.9187 41.7627 25.8272 41.6212C25.7358 41.4796 25.6295 41.3311 25.5909 41.291C25.5524 41.2509 25.4748 41.1512 25.4185 41.0693C25.255 40.8317 24.5812 40.1795 24.159 39.8503C23.6146 39.4258 23.3432 39.2643 22.5749 38.9073C21.614 38.4609 20.7333 38.2108 19.6141 38.0665C19.2811 38.0235 18.9337 37.9751 18.8421 37.9588C18.427 37.8851 17.9531 37.8678 16.4571 37.8715C15.3121 37.8743 14.7589 37.8874 14.4982 37.9175ZM35.6387 38.0101C31.4922 38.0175 30.6191 38.0261 30.5912 38.0596C30.5444 38.1161 30.5416 57.4798 30.5884 57.5267C30.6109 57.5492 32.2582 57.5613 36.0467 57.5667C40.7064 57.5735 41.4811 57.5685 41.5318 57.5314C41.5879 57.4904 41.5914 57.4399 41.6001 56.5549C41.609 55.6442 41.6019 55.4826 41.5492 55.3994C41.5279 55.3658 40.8195 55.3595 37.4252 55.3628C33.8733 55.3663 33.3187 55.3609 33.2663 55.3226C33.2064 55.2788 33.2058 55.2427 33.2058 51.9131V48.5479L33.2764 48.4907C33.3448 48.4353 33.4584 48.4338 36.986 48.4404C40.425 48.4469 40.6294 48.4443 40.7068 48.3936L40.7887 48.34V47.3555V46.371L40.7144 46.2967C40.6568 46.2391 40.6075 46.222 40.4949 46.221C40.4151 46.2202 38.7616 46.2208 36.8205 46.2223C33.5349 46.2249 33.2882 46.2216 33.2485 46.1737C33.2126 46.1304 33.2044 45.6641 33.1972 43.2219C33.1887 40.3403 33.189 40.3211 33.2502 40.26C33.3115 40.1987 33.3309 40.1984 37.1958 40.1984C40.2557 40.1984 41.0907 40.1904 41.1308 40.1606C41.1764 40.1267 41.1829 40.0175 41.1924 39.1266C41.2023 38.1913 41.1995 38.127 41.1472 38.0747C41.113 38.0405 41.0475 38.0188 40.9779 38.0186C40.9155 38.0184 40.8167 38.0144 40.7585 38.0097C40.7002 38.0049 38.3963 38.0051 35.6387 38.0101ZM15.8907 39.931C14.9254 39.9999 14.0309 40.1239 13.9555 40.1993C13.9326 40.2221 13.9231 42.4697 13.9231 47.812C13.9231 54.7031 13.9275 55.3967 13.9712 55.4405C14.0009 55.4702 14.1405 55.5069 14.3345 55.536C14.7561 55.5992 17.1522 55.6294 17.5556 55.5766C18.8195 55.4111 19.4196 55.2703 20.2043 54.9551C20.8719 54.687 20.9603 54.6409 21.5384 54.2589C21.9561 53.9829 22.1036 53.8635 22.4595 53.5132C22.914 53.066 23.0289 52.9258 23.3533 52.4224C23.7673 51.7801 24.0738 51.1019 24.2148 50.5163C24.2576 50.339 24.3257 50.0964 24.3662 49.9773C24.4811 49.6393 24.5257 49.3452 24.6002 48.4322C24.6986 47.2258 24.5867 45.5318 24.3708 44.9585C24.316 44.8129 24.2251 44.5302 24.1689 44.3304C23.9227 43.4547 23.1101 42.2121 22.4246 41.6631C21.8207 41.1794 21.2446 40.8436 20.5406 40.5648C19.8306 40.2835 19.7 40.2446 19.1121 40.1389C17.9176 39.924 16.9047 39.8587 15.8907 39.931Z" fill="#2C2C2C"/>
</svg>
