<svg width="117" height="58" viewBox="0 0 117 58" fill="none" xmlns="http://www.w3.org/2000/svg">
<path d="M77.2738 20.1847L77.1569 19.7168C71.1897 20.7696 64.9895 21.3545 58.7886 21.3545C52.4707 21.3545 46.387 20.7696 40.4202 19.7168L40.3032 20.1847C46.27 21.4715 52.4707 22.1733 58.7886 22.1733C65.1063 22.1733 71.3072 21.4715 77.2738 20.1847Z" fill="#2C2C2C"/>
<path d="M84.9952 22.6417L84.8784 22.1738C76.338 23.8115 67.6801 24.6303 58.6718 24.6303C49.7799 24.6303 41.0053 23.8115 32.4646 22.1738L32.3477 22.6417C40.7713 24.5133 49.546 25.4491 58.5543 25.4491C67.7969 25.4491 76.5716 24.3964 84.9952 22.6417Z" fill="#2C2C2C"/>
<path d="M69.9026 17.9621L69.7858 17.4941C66.1587 17.9621 62.5323 18.1961 58.7884 18.1961C55.0445 18.1961 51.4177 17.9621 47.7908 17.4941L47.6738 17.9621C51.3006 18.664 54.9277 19.0149 58.7884 19.0149C62.5323 19.0149 66.2762 18.547 69.9026 17.9621Z" fill="#2C2C2C"/>
<path d="M57.8527 1.35059C55.6293 1.35059 53.8745 3.10525 53.8745 5.79571V15.2709H55.0446V5.79571C55.0446 3.3392 56.4483 2.05244 58.3206 2.05244C60.0754 2.05244 61.4791 3.45621 61.4791 5.32781H61.7134C61.7134 2.98824 59.9586 1.35059 57.8527 1.35059Z" fill="#2C2C2C"/>
<path d="M57.8524 0.649364C60.4262 0.649364 62.5321 2.52097 62.5321 5.91328V15.3884H63.7022V5.91328C63.7022 2.17001 61.2452 0.0644531 58.3203 0.0644531C56.3312 0.0644531 54.5764 1.2342 53.6406 2.87193L53.8742 2.98887C54.6932 1.46815 56.0969 0.649364 57.8524 0.649364Z" fill="#2C2C2C"/>
<path d="M61.8304 52.4697H61.3625L58.6719 55.862V56.213H61.0114V57.7338H61.8304V56.213H62.6494V55.6281H61.8304V52.4697ZM61.0114 55.7451H59.023L60.8946 53.2886V55.7451H61.0114Z" fill="#2C2C2C"/>
<path d="M67.6801 54.8092C68.2648 54.5753 68.8502 54.2244 68.8502 53.6395C68.8502 52.9376 67.9144 52.4697 67.2122 52.4697C66.2764 52.4697 65.3399 52.9376 65.3399 53.7565C65.3399 54.4583 65.8085 54.8092 66.3932 55.0432C65.8085 55.3941 65.2231 55.7451 65.2231 56.447C65.2231 57.3827 66.0421 57.7338 66.8611 57.7338C68.0312 57.7338 68.967 57.2659 68.967 56.213C69.0838 55.5112 68.4991 55.0432 67.6801 54.8092ZM66.1589 53.6395C66.1589 53.0546 66.6275 52.8207 67.2122 52.8207C67.7969 52.8207 68.2648 53.1716 68.2648 53.6395C68.2648 54.1074 68.0312 54.4583 67.5633 54.8092C67.0954 54.4583 66.1589 54.2244 66.1589 53.6395ZM67.0954 57.617C66.3932 57.617 65.9253 57.1491 65.9253 56.5637C65.9253 55.9791 66.1589 55.5112 66.6275 55.1602C67.329 55.5112 68.2648 55.7451 68.2648 56.5637C68.2648 57.1491 67.7969 57.617 67.0954 57.617Z" fill="#2C2C2C"/>
<path d="M49.78 57.2662V52.5869H49.663C49.4291 52.8209 48.9611 53.1718 48.1421 53.4057V53.5227C48.6101 53.5227 48.8441 53.5227 48.9611 53.6397C48.9611 53.7567 49.078 53.8736 49.078 54.1076V57.1487C49.078 57.4998 48.8441 57.4998 48.4931 57.4998V57.6166H50.482C49.897 57.6166 49.78 57.4998 49.78 57.2662Z" fill="#2C2C2C"/>
<path d="M53.9919 52.5875C53.7577 52.5875 53.7577 52.5875 53.7577 52.3535H53.6409L53.0557 53.7572H53.2898L53.4066 53.5233C53.5234 53.4063 53.5234 53.2893 53.7577 53.2893H55.9804L54.3424 56.682C53.992 57.2667 53.7577 57.7346 53.7577 57.7346C53.7577 57.8514 53.9919 57.8514 54.1087 57.8514C54.4598 57.8514 54.5767 57.7346 54.6935 57.5003L56.5657 52.8214V52.5875H54.6935C54.3424 52.5875 54.2256 52.5875 53.9919 52.5875Z" fill="#2C2C2C"/>
<path d="M52.0027 47.0889H1.92871V47.5568H52.0027V47.0889Z" fill="#2C2C2C"/>
<path d="M116.818 47.0889H57.502V47.5568H116.818V47.0889Z" fill="#2C2C2C"/>
<path d="M43.813 40.5382C43.813 42.7608 45.4509 44.2814 47.6738 44.2814C49.7797 44.2814 51.5347 42.6438 51.5347 40.5382C51.5347 38.3156 50.0137 36.7949 47.6738 36.7949C45.3339 36.7949 43.813 38.4326 43.813 40.5382ZM49.8967 40.5382C49.8967 42.4098 49.0777 43.9305 47.6738 43.9305C46.1529 43.9305 45.4509 42.4098 45.4509 40.5382C45.4509 38.6665 46.2699 37.1458 47.6738 37.1458C49.1947 37.2628 49.8967 38.6665 49.8967 40.5382Z" fill="#2C2C2C"/>
<path d="M78.4438 32.8182V33.1691C79.1454 33.2861 79.7307 33.1691 79.7307 33.9879V43.1121C79.7307 43.814 79.0286 43.814 78.4438 43.814V44.1649C79.8476 44.1649 81.2513 44.282 82.6557 44.282C83.8258 44.282 85.2294 44.1649 86.2821 43.697C87.5696 42.9952 88.0376 42.1763 88.0376 41.1235C88.0376 39.4859 86.8674 38.3161 85.1126 38.0822C86.5163 37.7312 87.3354 36.7954 87.3354 35.5086C87.3354 34.6898 86.8674 33.754 85.9316 33.2861C84.8783 32.8182 83.7083 32.8182 82.5382 32.8182C81.1345 32.7012 79.8476 32.7012 78.4438 32.8182ZM86.1652 41.1235C86.1652 42.8782 85.1127 43.697 83.1236 43.697C82.1878 43.697 81.6024 43.58 81.6024 42.6442V38.4331H82.4214C84.4105 38.5501 86.1652 38.667 86.1652 41.1235ZM85.5805 35.5086C85.5805 37.2633 84.1762 37.9652 82.5382 37.9652H81.7198V33.1691C81.8367 33.1691 82.1877 33.1691 82.3045 33.1691C84.8783 33.1691 85.5805 34.2219 85.5805 35.5086Z" fill="#2C2C2C"/>
<path d="M94.0043 44.2814C96.1102 44.2814 97.865 42.6438 97.865 40.5382C97.865 38.3156 96.3438 36.7949 94.0043 36.7949C91.6641 36.7949 90.1436 38.3156 90.1436 40.5382C90.1436 42.7608 91.7816 44.2814 94.0043 44.2814ZM94.0043 37.2628C95.6423 37.2628 96.227 38.7835 96.227 40.6551C96.227 42.5267 95.408 44.0475 94.0043 44.0475C92.4831 44.0475 91.7816 42.5267 91.7816 40.6551C91.7816 38.7835 92.6006 37.2628 94.0043 37.2628Z" fill="#2C2C2C"/>
<path d="M6.49158 44.3989H7.07656L10.5864 35.2747C11.0544 34.2219 11.4054 33.1691 12.6923 33.1691V32.8182H8.8315V33.1691C9.18246 33.1691 9.76744 33.1691 10.1185 33.637C10.2354 33.9879 10.2354 34.5728 9.76744 35.7426L7.42752 41.9424L4.61963 34.8068C4.61963 34.6898 4.38568 34.1049 4.50269 33.754C4.61963 33.2861 5.20461 33.0521 5.78959 33.0521V32.7012H0.758789V33.0521C1.10982 33.0521 1.57779 33.1691 1.92875 33.52C2.27978 33.871 2.51373 34.4558 2.86476 35.3916L6.49158 44.3989Z" fill="#2C2C2C"/>
<path d="M21.5842 43.8138C20.7652 43.8138 20.5312 43.8138 20.5312 42.878V32.584C19.7123 32.8179 18.7763 33.1689 17.8403 33.2859V33.5199C18.1914 33.5199 18.4253 33.6368 18.6593 33.7538C18.8933 33.9878 18.8933 34.3387 18.8933 34.8066V42.878C18.8933 43.6968 18.6593 43.6968 17.8403 43.8138V44.1647H21.5842V43.8138Z" fill="#2C2C2C"/>
<path d="M26.8488 43.8138C26.0298 43.8138 25.7959 43.8138 25.7959 42.878V32.584C24.9769 32.8179 24.0409 33.1689 23.105 33.2859V33.5199C23.4559 33.5199 23.6899 33.6368 23.9239 33.7538C24.1579 33.9878 24.1579 34.3387 24.1579 34.8066V42.878C24.1579 43.6968 23.9239 43.6968 23.105 43.8138V44.1647H26.7318V43.8138H26.8488Z" fill="#2C2C2C"/>
<path d="M40.8883 37.6137C41.3562 37.6137 41.5902 38.3156 42.0581 38.3156C42.4092 38.3156 42.7601 38.0816 42.7601 37.6137C42.7601 37.0289 42.1752 36.7949 41.7072 36.7949C40.5372 36.7949 39.8352 37.7307 39.6013 38.3156V36.9119C38.8993 37.1458 37.9634 37.4968 37.2614 37.7307C37.8463 37.9647 38.0803 38.0816 38.0803 38.6665V42.8777C38.0803 43.6966 37.8463 43.6966 37.0273 43.8135V44.1645H40.7712V43.8135C39.8352 43.8135 39.6013 43.8135 39.6013 42.8777V39.7193C39.7183 38.4326 40.3033 37.6137 40.8883 37.6137Z" fill="#2C2C2C"/>
<path d="M103.598 44.2814C105.118 44.2814 106.171 43.4626 106.756 42.1759L106.523 42.0588C106.055 42.8777 105.236 43.5796 104.182 43.5796C102.193 43.5796 101.725 41.9419 101.725 40.4212C101.725 39.1344 102.076 37.1458 103.831 37.1458C104.533 37.1458 105.236 37.6137 105.236 38.3156C105.236 38.7835 105.469 39.1344 105.937 39.1344C106.288 39.1344 106.639 38.9005 106.639 38.4326C106.639 37.3798 105.236 36.7949 103.831 36.7949C101.492 36.7949 100.087 38.4326 100.087 40.6551C99.9705 42.6438 101.374 44.2814 103.598 44.2814Z" fill="#2C2C2C"/>
<path d="M111.553 43.8138C110.851 43.8138 110.5 43.8138 110.5 42.878V38.5498C110.968 38.0819 111.319 37.497 112.372 37.497C113.425 37.497 113.893 38.3159 113.893 39.3687V42.878C113.893 43.6968 113.659 43.6968 112.957 43.8138V44.1647H116.584V43.8138C115.765 43.8138 115.531 43.8138 115.531 42.878V39.6026C115.531 37.2631 113.893 36.7952 112.957 36.7952C111.787 36.7952 111.202 37.2631 110.5 37.965V32.584C109.681 32.8179 108.745 33.1689 107.926 33.4028V33.5199C108.394 33.6368 108.862 33.7538 108.862 34.2217V42.761C108.862 43.5799 108.629 43.5799 107.81 43.6968V44.0478H111.436V43.8138H111.553Z" fill="#2C2C2C"/>
<path d="M15.2663 36.7949C14.4473 37.0289 13.3943 37.3798 12.6924 37.6137V37.7307C12.9263 37.7307 13.1604 37.7307 13.3943 37.8477C13.7453 38.0816 13.7453 38.5495 13.7453 38.9005V42.8777C13.7453 43.6966 13.5113 43.6966 12.6924 43.8135V44.1645H16.3192V43.8135C15.6172 43.8135 15.2663 43.8135 15.2663 42.8777V36.7949Z" fill="#2C2C2C"/>
<path d="M14.3305 35.5084C14.7984 35.5084 15.2664 35.0405 15.2664 34.5726C15.2664 34.1046 14.7984 33.6367 14.3305 33.6367C13.8625 33.6367 13.3945 34.1046 13.3945 34.5726C13.3945 35.1574 13.8625 35.5084 14.3305 35.5084Z" fill="#2C2C2C"/>
<path d="M32.3477 44.2814C34.1026 44.2814 35.1555 43.1117 35.5065 42.1759L35.1555 42.0588C34.6876 42.9947 33.6346 43.5796 32.8156 43.5796C30.9437 43.5796 30.2418 42.0588 30.2418 40.4212C30.2418 40.0702 30.2418 39.8363 30.3587 39.6023H35.3895C35.2726 37.7307 33.8686 36.7949 32.2306 36.7949C30.0077 36.7949 28.4868 38.4326 28.4868 40.6551C28.6038 42.8777 30.2418 44.2814 32.3477 44.2814ZM32.3477 37.2628C33.0496 37.2628 33.8686 37.9647 33.8686 39.1344H30.4757C30.8267 37.9647 31.5287 37.2628 32.3477 37.2628Z" fill="#2C2C2C"/>
<path d="M53.6409 38.1988L56.4483 44.2816L55.8636 45.5684C55.7468 45.9193 55.5125 46.3872 55.0446 46.3872C54.8103 46.3872 54.6935 46.2703 54.4599 46.2703C53.9913 46.2703 53.7577 46.5042 53.7577 46.9721C53.7577 47.323 54.1088 47.674 54.4599 47.674C55.5125 47.674 55.8636 46.7382 56.2147 45.9193L59.4907 38.3158C59.7243 37.8479 59.9586 37.263 60.7776 37.263V36.9121H57.8527V37.263C58.2031 37.263 58.6717 37.263 58.9053 37.614C59.0221 37.8479 58.9053 38.3158 58.7885 38.6667L57.2673 42.41L55.5125 38.3158C55.3957 38.0819 55.3957 37.8479 55.3957 37.7309C55.5125 37.38 55.8636 37.38 56.2147 37.38V37.029H52.4707V37.38C53.1727 37.38 53.4066 37.7309 53.6409 38.1988Z" fill="#2C2C2C"/>
<path d="M65.2231 41.9424C65.2231 42.9952 65.9253 44.282 67.9144 44.282C68.967 44.282 69.786 43.814 70.3707 43.1122L70.4882 43.2292C71.0729 43.8141 71.7751 44.282 72.7109 44.282C73.5299 44.282 74.3489 43.4631 74.7 42.8782L74.4657 42.7613C74.1146 43.2292 73.6467 43.4631 73.2956 43.4631C72.4767 43.4631 71.8919 42.9952 71.3072 42.4103C71.1897 42.2934 71.1897 42.1764 71.0729 42.1764C71.0729 42.0594 71.1897 41.9424 71.1897 41.9424C71.424 41.5914 71.7751 40.8896 71.8919 40.4217C72.1262 39.7198 72.5941 38.901 73.5299 38.901V38.667H70.8393V38.901C71.3072 38.901 71.6583 39.018 71.6583 39.6029C71.6583 40.4217 71.1897 41.2406 70.9561 41.7085C70.9561 41.7085 70.8393 41.8255 70.8393 41.9424C70.1371 41.0066 69.3181 39.7198 68.7334 38.667C69.5524 38.0822 70.4882 37.3803 70.4882 36.5615C70.605 35.6257 69.9028 34.9238 68.4991 34.9238C67.2122 34.9238 66.3932 35.7426 66.3932 36.9124C66.3932 37.3803 66.6275 37.9652 66.8611 38.4331C66.9779 38.5501 67.0954 38.901 67.329 39.2519C66.51 39.6029 65.2231 40.5387 65.2231 41.9424ZM68.6159 35.1578C69.2013 35.1578 69.6692 35.5087 69.5524 36.3275C69.5524 36.9124 69.3181 37.3803 68.4991 38.0822C68.3823 37.8482 68.2648 37.6143 68.148 37.4973C67.7969 36.9124 67.6801 36.5615 67.6801 36.0936C67.7969 35.7426 68.148 35.1578 68.6159 35.1578ZM67.6801 39.369C68.2648 40.4217 69.2013 41.8255 70.0203 42.7613C69.5524 43.2292 68.967 43.5801 68.3823 43.5801C67.4458 43.5801 66.6275 42.8782 66.6275 41.7085C66.6275 40.7727 67.0954 39.9538 67.6801 39.369Z" fill="#2C2C2C"/>
</svg>
