<svg width="77" height="55" viewBox="0 0 77 55" fill="none" xmlns="http://www.w3.org/2000/svg">
<path id="Vector" fill-rule="evenodd" clip-rule="evenodd" d="M7.30195 0.224422C3.7692 0.767433 0.981221 3.57293 0.455068 7.11438C0.376703 7.64195 0.368164 9.62523 0.368164 27.3282C0.368164 45.0312 0.376703 47.0145 0.455068 47.542C0.984756 51.1076 3.78013 53.9029 7.34568 54.4326C7.87623 54.5114 10.7684 54.5195 38.436 54.5195C66.1037 54.5195 68.9958 54.5114 69.5264 54.4326C73.0919 53.9029 75.8873 51.1076 76.417 47.542C76.4954 47.0145 76.5039 45.0312 76.5039 27.3282C76.5039 9.62523 76.4954 7.64195 76.417 7.11438C75.8873 3.54883 73.0919 0.753457 69.5264 0.22377C68.9954 0.144915 66.1182 0.137412 38.3664 0.143067C12.6303 0.148234 7.71396 0.161121 7.30195 0.224422ZM7.94971 5.65584C6.92253 5.87935 6.10456 6.7064 5.88463 7.7438C5.77021 8.28377 5.77021 46.3726 5.88463 46.9126C6.10722 47.9627 6.92497 48.7805 7.9751 49.0031C8.5161 49.1177 68.3559 49.1177 68.8969 49.0031C69.9471 48.7805 70.7648 47.9627 70.9874 46.9126C71.1018 46.3726 71.1018 8.28377 70.9874 7.7438C70.7648 6.69368 69.9471 5.87592 68.8969 5.65334C68.374 5.5425 8.45938 5.54495 7.94971 5.65584ZM46.803 17.4892C42.4796 17.7373 39.7418 20.006 39.7413 23.3408C39.741 25.3841 40.5635 26.855 42.3543 28.0135C42.5596 28.1463 43.261 28.5312 43.9128 28.8688C45.2776 29.5756 45.5813 29.7611 45.9977 30.1424C46.4184 30.5277 46.613 30.9342 46.6158 31.4341C46.6183 31.8769 46.5083 32.1315 46.1766 32.4501C45.6815 32.9255 44.9393 33.1435 43.6684 33.1867C42.0715 33.2411 40.6955 32.9992 39.2079 32.4028C38.8697 32.2672 38.5855 32.1651 38.5763 32.1759C38.5424 32.2154 37.72 36.0929 37.741 36.1139C37.8068 36.1797 38.5334 36.4743 38.9864 36.6189C40.777 37.1903 43.2666 37.3537 44.8804 37.0055C46.0203 36.7596 47.4684 36.1589 48.41 35.5412C50.492 34.1757 51.651 32.3662 51.651 30.4814C51.651 29.0717 51.0747 27.9168 49.8917 26.9561C49.192 26.3879 48.9002 26.2131 46.7022 25.0456C45.2423 24.2702 44.7797 23.832 44.7773 23.2223C44.7747 22.538 45.1066 22.0399 45.7686 21.7347C46.3897 21.4485 46.8193 21.3763 47.8986 21.3769C48.7841 21.3773 48.8844 21.3879 49.3398 21.5282C49.9365 21.712 50.6908 22.0379 51.1762 22.3216C51.4842 22.5016 51.5419 22.5195 51.5645 22.4426C51.591 22.3528 52.358 18.4289 52.358 18.3834C52.358 18.3704 52.1194 18.2863 51.8278 18.1965C50.2312 17.7049 49.3761 17.5467 47.8714 17.4645C47.692 17.4546 47.2112 17.4658 46.803 17.4892ZM25.0686 18.6134C24.9182 19.0545 23.899 22.0451 22.8036 25.2591C21.7083 28.4731 20.8037 31.1111 20.7934 31.1213C20.7691 31.1457 20.7441 31.0362 20.573 30.1561C20.4181 29.3593 20.2296 28.8798 19.6856 27.8992C18.5425 25.8388 17.1129 24.0785 15.4865 22.7289C14.7349 22.1052 13.7186 21.4101 13.6535 21.4752C13.6346 21.4941 14.5127 24.905 15.6047 29.055L17.5902 36.6004L20.3392 36.6145C22.5086 36.6257 23.0939 36.6142 23.1157 36.5601C23.1308 36.5225 24.8249 32.3314 26.8801 27.2466C28.9354 22.1618 30.6294 17.9587 30.6445 17.9064C30.6704 17.8167 30.5193 17.8112 28.0071 17.8112H25.3421L25.0686 18.6134ZM32.6491 17.8577C32.6333 17.8833 31.9706 22.0375 31.1764 27.0892C30.3822 32.1409 29.718 36.3537 29.7004 36.4509L29.6683 36.6276H32.176C33.5552 36.6276 34.6836 36.6118 34.6836 36.5925C34.6836 36.5732 35.3566 32.3646 36.1791 27.2402C37.0017 22.1158 37.6747 17.8979 37.6747 17.8671C37.6747 17.7978 32.6919 17.7885 32.6491 17.8577ZM59.6496 17.9336C59.6235 18.0009 57.7983 22.1918 55.5937 27.2466C53.3889 32.3015 51.5726 36.4801 51.5573 36.5325C51.5312 36.6221 51.673 36.6276 54.0028 36.6276H56.4761L56.9827 35.2953L57.4893 33.9629H60.603C63.5216 33.9629 63.7184 33.9689 63.7442 34.0581C63.7593 34.1104 63.8726 34.6671 63.9959 35.2953C64.1192 35.9234 64.2324 36.4801 64.2476 36.5325C64.2732 36.6211 64.4291 36.6276 66.5283 36.6276C68.427 36.6276 68.7816 36.6156 68.7816 36.5512C68.7816 36.4655 64.9884 17.9856 64.949 17.8792C64.9293 17.8261 64.3514 17.8112 62.3104 17.8112H59.6969L59.6496 17.9336ZM8.22646 17.922C8.28628 17.9489 8.74119 18.1296 9.23732 18.3237C12.3638 19.5463 15.165 21.332 17.1484 23.3667C18.4552 24.7073 19.406 26.1636 20.001 27.7361C20.0916 27.9754 20.1528 28.0977 20.1373 28.008C20.1217 27.9183 19.7546 26.0339 19.3216 23.8205C18.6895 20.5901 18.5054 19.7392 18.3885 19.507C18.1634 19.06 17.5713 18.4611 17.1202 18.2241C16.4401 17.8666 16.4479 17.8672 12.0604 17.8702C9.67646 17.8719 8.16071 17.8923 8.22646 17.922ZM60.584 25.8972C60.0385 27.3273 59.4352 28.9074 59.2435 29.4083L58.8949 30.3192H60.9439H62.9929L62.3009 26.8795C61.9204 24.9877 61.6016 23.4077 61.5924 23.3684C61.5833 23.3291 61.1295 24.4671 60.584 25.8972Z" fill="#323232"/>
</svg>
