<svg width="23" height="24" viewBox="0 0 23 24" fill="none" xmlns="http://www.w3.org/2000/svg">
<path id="Vector" d="M15.0339 0.5H7.97755C1.53295 0.5 0 2.03295 0 8.46605V15.5224C0 21.9659 1.52145 23.5 7.96605 23.5H15.0224C21.4659 23.5 23 21.9785 23 15.5339V8.47755C23 2.03295 21.4785 0.5 15.0339 0.5ZM18.5679 16.9105H16.8901C16.2553 16.9105 16.0644 16.3965 14.9258 15.2579C13.9323 14.3 13.5125 14.1804 13.2606 14.1804C12.9134 14.1804 12.8179 14.2758 12.8179 14.7554V16.2642C12.8179 16.6724 12.6856 16.9116 11.6196 16.9116C10.585 16.8421 9.58171 16.5278 8.69239 15.9946C7.80306 15.4613 7.05314 14.7244 6.5044 13.8446C5.20164 12.2231 4.29518 10.32 3.8571 8.28665C3.8571 8.0348 3.95255 7.8071 4.4321 7.8071H6.1088C6.54005 7.8071 6.6953 7.99915 6.86435 8.4419C7.67855 10.8385 9.06775 12.9223 9.63125 12.9223C9.84745 12.9223 9.94175 12.8268 9.94175 12.2875V9.8196C9.87045 8.69375 9.27245 8.5983 9.27245 8.1912C9.28013 8.08382 9.32934 7.98366 9.40963 7.91196C9.48992 7.84025 9.59499 7.80264 9.70255 7.8071H12.3384C12.6983 7.8071 12.8179 7.9865 12.8179 8.41775V11.7481C12.8179 12.1081 12.9731 12.2277 13.0813 12.2277C13.2975 12.2277 13.4642 12.1081 13.8598 11.7125C14.7095 10.6763 15.4037 9.52184 15.9206 8.2855C15.9734 8.13699 16.0734 8.00985 16.2053 7.92347C16.3371 7.83709 16.4936 7.79622 16.6509 7.8071H18.3287C18.8312 7.8071 18.9382 8.05895 18.8312 8.41775C18.2212 9.78444 17.4663 11.0818 16.5795 12.2875C16.399 12.5635 16.3265 12.7072 16.5795 13.0304C16.7463 13.2822 17.334 13.7733 17.7295 14.2402C18.3044 14.8136 18.7818 15.4771 19.1429 16.2044C19.2866 16.6713 19.0463 16.9105 18.5679 16.9105Z" fill="#5754FF"/>
</svg>
