<svg width="98" height="33" viewBox="0 0 98 33" fill="none" xmlns="http://www.w3.org/2000/svg">
<path id="Vector" fill-rule="evenodd" clip-rule="evenodd" d="M83.2956 0.933548C81.6743 1.00568 80.3422 1.46554 79.2341 2.33562C78.7889 2.68524 78.0565 3.55006 77.7421 4.09735C76.8027 5.73298 76.4077 7.6704 76.5138 10.1219C76.6773 13.8988 77.2824 15.2505 79.7318 17.3096C80.6332 18.0674 81.4778 18.6675 82.6056 19.3511C83.4356 19.8544 83.8346 20.1717 84.2438 20.6539C84.9885 21.5316 85.2684 22.3812 85.266 23.7566C85.2637 25.0694 85.0953 25.906 84.7307 26.4168C84.4743 26.776 84.0244 26.9624 83.5389 26.9105C82.9931 26.8523 82.6049 26.6012 82.4059 26.1778L82.2901 25.9314L82.2784 23.8283L82.2666 21.7251H79.4294H76.5922L76.5925 23.2705C76.5929 25.2347 76.6493 25.8582 76.9127 26.809C77.5349 29.0556 79.0302 30.7242 81.1071 31.4896C81.5321 31.6462 82.0752 31.784 82.5858 31.8647C83.0429 31.9369 84.3468 31.9346 84.9123 31.8604C87.9148 31.4668 89.9277 29.703 90.7614 26.7353C91.2258 25.0818 91.338 22.907 91.0587 20.9687C90.7246 18.6502 89.8198 16.9339 88.2246 15.5931C88.0186 15.4199 87.3709 14.9376 86.7853 14.5214C83.9798 12.5268 82.9935 11.5797 82.4894 10.3956C82.2019 9.72035 82.0801 8.75298 82.151 7.70679C82.2335 6.48826 82.465 5.84044 82.9338 5.5156C83.1083 5.39462 83.1444 5.38783 83.6111 5.38783C84.0709 5.38783 84.1176 5.39629 84.3066 5.51379C84.5575 5.66977 84.7658 5.95074 84.8824 6.2905C84.9697 6.54478 84.9717 6.59154 84.9832 8.69944L84.9949 10.8491H87.8519H90.7088V9.32458C90.7088 8.4861 90.6902 7.52641 90.6674 7.192C90.4398 3.8452 88.5399 1.635 85.4052 1.0701C84.8547 0.970916 83.8775 0.907659 83.2956 0.933548ZM67.7397 0.996525C66.1858 1.10993 64.8313 1.63268 63.8121 2.51229C63.4963 2.78479 62.9631 3.39167 62.7062 3.77089C62.2471 4.44864 61.811 5.46076 61.589 6.36388C61.2771 7.6328 61.1853 8.66323 61.2511 10.1567C61.3605 12.6386 61.66 13.9619 62.3691 15.096C63.1995 16.424 65.2147 18.1658 67.3484 19.3997C68.4223 20.0207 69.0515 20.5976 69.472 21.3467C69.8603 22.0387 70.0077 22.7038 70.0058 23.7566C70.0035 25.0694 69.8352 25.906 69.4706 26.4168C69.2141 26.776 68.7643 26.9624 68.2788 26.9105C67.7292 26.8518 67.3464 26.6056 67.1483 26.1835L67.03 25.9314L67.0182 23.8283L67.0065 21.7251H64.1652H61.3238L61.3437 23.5494C61.3653 25.525 61.3825 25.726 61.6094 26.6429C62.4656 30.1041 65.4078 32.1783 69.0754 31.9062C72.0626 31.6846 74.0589 30.3378 75.1325 27.8199C75.75 26.3716 76.0423 24.3552 75.9248 22.3526C75.7419 19.2341 74.8394 17.2034 72.925 15.6027C72.7407 15.4486 72.1108 14.982 71.5252 14.5659C67.7945 11.9146 66.9901 10.9146 66.8722 8.78078C66.843 8.25236 66.9016 7.32874 66.9955 6.83606C67.0689 6.45131 67.2449 6.00358 67.3973 5.81362C67.6707 5.47284 68.1 5.32969 68.5988 5.41298C69.1 5.49673 69.4394 5.80317 69.622 6.33697C69.7088 6.5908 69.7109 6.64159 69.723 8.74592L69.7354 10.8956H72.592H75.4487L75.4483 9.3269C75.448 8.46416 75.4292 7.50726 75.4065 7.2005C75.1715 4.03493 73.4373 1.87664 70.5921 1.20898C69.751 1.01158 68.6536 0.929828 67.7397 0.996525ZM0.222127 4.00509L0.23234 6.36388L4.00794 6.37574C6.08454 6.38224 7.78355 6.39981 7.78355 6.41473C7.78355 6.4376 6.74937 9.16948 5.43632 12.6153C4.50569 15.0574 3.33693 18.1282 3.18965 18.5181C3.0001 19.0199 2.02744 21.5778 0.946018 24.4185L0.212624 26.345V28.8456V31.3462H7.19207H14.1715V28.8131V26.28H10.3227C7.25906 26.28 6.47799 26.2682 6.49416 26.2219C6.50536 26.19 7.10315 24.5952 7.82262 22.6779C9.22009 18.954 12.0984 11.279 13.2409 8.2301L13.9349 6.37801V4.01215V1.6463H7.07342H0.211914L0.222127 4.00509ZM16.6002 1.84383C16.5887 1.9525 16.2418 8.51469 15.8293 16.4265C15.4169 24.3384 15.069 30.9414 15.0563 31.1L15.0331 31.3883L17.5696 31.3608C18.9646 31.3458 20.113 31.3263 20.1215 31.3177C20.13 31.309 20.1863 30.6165 20.2466 29.7786C20.3069 28.9408 20.3576 28.2501 20.3593 28.2437C20.3609 28.2373 20.9834 28.2321 21.7424 28.2321C23.0305 28.2321 23.1225 28.2376 23.1227 28.3134C23.1229 28.3582 23.167 29.0118 23.2208 29.7659C23.2746 30.52 23.3189 31.1841 23.3192 31.2416L23.3197 31.3462H26.0997C28.7206 31.3462 28.8796 31.3415 28.8804 31.2648C28.8817 31.1332 26.6298 1.86558 26.6096 1.75087L26.5911 1.6463H21.6061H16.6211L16.6002 1.84383ZM30.102 16.4962V31.3462H32.9411H35.7802L35.7829 25.7804C35.7845 22.3837 35.7995 20.2507 35.8215 20.3075C35.8556 20.3955 38.6193 31.2781 38.6193 31.3243C38.6193 31.3364 39.8525 31.3462 41.3598 31.3462H44.1003V16.4962V1.6463H41.3008H38.5013L38.4913 7.26697L38.4813 12.8877L37.1435 7.83633C36.4077 5.05812 35.7373 2.52879 35.6536 2.21566L35.5014 1.6463H32.8017H30.102V16.4962ZM45.9246 13.8353C45.9359 25.403 45.9402 26.0421 46.0078 26.373C46.2657 27.6347 46.7372 28.5986 47.5893 29.6059C48.191 30.3172 48.6963 30.7383 49.4824 31.1836C50.6103 31.8225 51.6548 32.0898 53.0234 32.0898C54.599 32.0898 55.8597 31.7692 57.0537 31.0648C58.6361 30.1311 59.6224 28.6893 59.9988 26.7593L60.0878 26.3032L60.0994 13.9748L60.1111 1.6463H57.2716H54.4321L54.4219 13.7889L54.4118 25.9314L54.3259 26.1205C53.9223 27.0092 52.5924 27.2032 51.9791 26.4628C51.6421 26.0559 51.6712 27.2652 51.6712 13.6991V1.6463H48.792H45.9127L45.9246 13.8353ZM92.186 1.70439C92.1757 1.73637 92.1718 8.42405 92.1774 16.566L92.1875 31.3694L95.0167 31.3814L97.846 31.3933V16.5198V1.6463H95.0254C92.8051 1.6463 92.2007 1.65866 92.186 1.70439ZM21.6155 8.47867C21.6024 8.51701 21.5101 9.8556 21.4103 11.4533C21.0793 16.7541 20.6816 22.9998 20.6595 23.2473L20.6377 23.4913H21.7026H22.7677V23.3764C22.7677 23.2694 21.6788 8.77994 21.6515 8.52514C21.643 8.44539 21.6317 8.43079 21.6155 8.47867Z" fill="#2C2C2C"/>
</svg>
